<svg width="584" height="558" viewBox="0 0 584 558" fill="none" xmlns="http://www.w3.org/2000/svg">
<path d="M89.2656 161.328L88.3656 162.528L88.3776 162.537L88.3897 162.546L89.2656 161.328ZM61.5625 151.203L61.2482 152.67L61.2503 152.67L61.5625 151.203ZM30.2031 141.078L29.5193 142.413L29.5259 142.417L30.2031 141.078ZM13.0469 127.016L11.8021 127.853L11.807 127.86L11.8121 127.867L13.0469 127.016ZM23.3125 75.9688L22.3654 74.8055L22.3604 74.8097L23.3125 75.9688ZM105.719 76.3906L104.758 77.543L104.763 77.5471L105.719 76.3906ZM121.891 110.562V112.062H123.391V110.562H121.891ZM95.7344 110.562H94.2344V112.062H95.7344V110.562ZM86.5938 92.1406L85.6161 93.2783L85.6248 93.2857L86.5938 92.1406ZM67.8906 130.109L67.5619 131.573L67.5641 131.573L67.8906 130.109ZM117.391 155.141L116.146 155.977L116.154 155.989L116.162 156.001L117.391 155.141ZM106.984 208.578L107.884 209.778L107.891 209.773L106.984 208.578ZM10.2344 196.344L8.99093 197.183L8.99676 197.191L9.00271 197.2L10.2344 196.344ZM2.35938 171.172V169.672H0.859375V171.172H2.35938ZM28.375 171.172L29.8728 171.091L29.7965 169.672H28.375V171.172ZM38.7812 191.984L37.8463 193.157L37.8556 193.165L37.865 193.172L38.7812 191.984ZM88.2812 193.672L89.1133 194.92L89.1178 194.917L88.2812 193.672ZM98.7812 177.641C98.7812 170.165 95.9074 164.258 90.1415 160.11L88.3897 162.546C93.3113 166.086 95.7812 171.053 95.7812 177.641H98.7812ZM90.1656 160.128C84.6383 155.983 75.1276 152.556 61.8747 149.736L61.2503 152.67C74.4349 155.476 83.393 158.799 88.3656 162.528L90.1656 160.128ZM61.8768 149.736C48.8179 146.938 38.5025 143.597 30.8804 139.74L29.5259 142.417C37.4663 146.435 48.0571 149.843 61.2482 152.67L61.8768 149.736ZM30.8869 139.743C23.3545 135.885 17.8541 131.344 14.2817 126.164L11.8121 127.867C15.7396 133.562 21.6767 138.396 29.5193 142.413L30.8869 139.743ZM14.2916 126.179C10.8249 121.023 9.0625 114.856 9.0625 107.609H6.0625C6.0625 115.363 7.95631 122.133 11.8021 127.853L14.2916 126.179ZM9.0625 107.609C9.0625 95.6335 14.076 85.497 24.2646 77.1278L22.3604 74.8097C11.549 83.6905 6.0625 94.6478 6.0625 107.609H9.0625ZM24.2596 77.132C34.5348 68.7663 47.6792 64.5312 63.8125 64.5312V61.5312C47.1333 61.5312 33.2777 65.9212 22.3654 74.8055L24.2596 77.132ZM63.8125 64.5312C80.7984 64.5312 94.4005 68.9113 104.758 77.543L106.679 75.2383C95.662 66.0575 81.3266 61.5312 63.8125 61.5312V64.5312ZM104.763 77.5471C115.203 86.171 120.391 97.139 120.391 110.562H123.391C123.391 96.236 117.797 84.4228 106.674 75.2342L104.763 77.5471ZM121.891 109.062H95.7344V112.062H121.891V109.062ZM97.2344 110.562C97.2344 102.94 93.9477 96.3983 87.5627 90.9955L85.6248 93.2857C91.4273 98.1955 94.2344 103.935 94.2344 110.562H97.2344ZM87.5714 91.003C81.2563 85.5759 73.2975 82.9062 63.8125 82.9062V85.9062C72.7025 85.9062 79.9312 88.3928 85.6161 93.2783L87.5714 91.003ZM63.8125 82.9062C54.1427 82.9062 46.3709 85.0112 40.6772 89.4064L42.5103 91.7811C47.5041 87.9263 54.5448 85.9062 63.8125 85.9062V82.9062ZM40.6772 89.4064C34.9716 93.8107 32.0781 99.6369 32.0781 106.766H35.0781C35.0781 100.582 37.5284 95.6268 42.5103 91.7811L40.6772 89.4064ZM32.0781 106.766C32.0781 113.519 34.7905 118.747 40.2213 122.231L41.8412 119.706C37.3345 116.815 35.0781 112.575 35.0781 106.766H32.0781ZM40.2213 122.231C45.4309 125.573 54.6131 128.664 67.5619 131.573L68.2194 128.646C55.2931 125.742 46.5691 122.739 41.8412 119.706L40.2213 122.231ZM67.5641 131.573C80.5274 134.464 90.946 137.9 98.8604 141.857L100.202 139.174C91.9915 135.069 81.3164 131.567 68.2171 128.645L67.5641 131.573ZM98.8604 141.857C106.761 145.807 112.484 150.53 116.146 155.977L118.636 154.304C114.609 148.314 108.427 143.286 100.202 139.174L98.8604 141.857ZM116.162 156.001C119.892 161.329 121.797 167.905 121.797 175.812H124.797C124.797 167.408 122.765 160.202 118.619 154.28L116.162 156.001ZM121.797 175.812C121.797 188.935 116.581 199.415 106.078 207.383L107.891 209.773C119.138 201.241 124.797 189.878 124.797 175.812H121.797ZM106.084 207.378C95.533 215.292 81.7657 219.312 64.6562 219.312V222.312C82.2343 222.312 96.6858 218.177 107.884 209.778L106.084 207.378ZM64.6562 219.312C52.6464 219.312 42.0854 217.188 32.9394 212.981L31.6856 215.706C41.2896 220.124 52.2911 222.312 64.6562 222.312V219.312ZM32.9394 212.981C23.782 208.769 16.6417 202.933 11.466 195.488L9.00271 197.2C14.5145 205.129 22.093 211.294 31.6856 215.706L32.9394 212.981ZM11.4778 195.505C6.38743 187.96 3.85938 179.86 3.85938 171.172H0.859375C0.859375 180.484 3.58132 189.165 8.99093 197.183L11.4778 195.505ZM2.35938 172.672H28.375V169.672H2.35938V172.672ZM26.8772 171.252C27.3675 180.372 31.022 187.718 37.8463 193.157L39.7162 190.811C33.603 185.939 30.32 179.409 29.8728 171.091L26.8772 171.252ZM37.865 193.172C44.7575 198.489 53.734 201.078 64.6562 201.078V198.078C54.2035 198.078 45.93 195.605 39.6975 190.797L37.865 193.172ZM64.6562 201.078C74.6854 201.078 82.8823 199.074 89.1133 194.92L87.4492 192.424C81.8677 196.145 74.3146 198.078 64.6562 198.078V201.078ZM89.1178 194.917C95.4903 190.635 98.7812 184.845 98.7812 177.641H95.7812C95.7812 183.749 93.0722 188.646 87.4447 192.427L89.1178 194.917ZM251.125 218L249.783 218.671L250.198 219.5H251.125V218ZM247.469 201.969L248.958 201.787L248.576 198.656L246.388 200.928L247.469 201.969ZM167.172 208.156L166.173 209.276L166.179 209.281L166.185 209.286L167.172 208.156ZM170.828 138.969L171.71 140.182L171.711 140.181L170.828 138.969ZM247.047 125.75V127.25H248.547V125.75H247.047ZM238.891 92.1406L237.83 93.2013L237.839 93.2105L238.891 92.1406ZM182.078 108.031V109.531H183.578V108.031H182.078ZM155.922 108.031H154.422V109.531H155.922V108.031ZM163.938 86.0938L162.745 85.1837L162.743 85.1861L163.938 86.0938ZM185.875 69.2188L185.266 67.848L185.261 67.8503L185.875 69.2188ZM257.594 76.25L256.599 77.3723L256.604 77.3775L257.594 76.25ZM273.062 112.391H274.562V112.372L274.562 112.354L273.062 112.391ZM278.406 215.75H279.906V215.44L279.783 215.155L278.406 215.75ZM278.406 218V219.5H279.906V218H278.406ZM247.047 175.391L248.396 176.046L248.547 175.736V175.391H247.047ZM247.047 144.172H248.547V142.672H247.047V144.172ZM252.467 217.329C251.093 214.582 249.895 209.469 248.958 201.787L245.98 202.15C246.918 209.844 248.157 215.418 249.783 218.671L252.467 217.329ZM246.388 200.928C234.565 213.21 220.512 219.312 204.156 219.312V222.312C221.363 222.312 236.185 215.852 248.549 203.009L246.388 200.928ZM204.156 219.312C189.454 219.312 177.496 215.186 168.159 207.027L166.185 209.286C176.16 218.002 188.858 222.312 204.156 222.312V219.312ZM168.17 207.037C158.933 198.796 154.328 188.424 154.328 175.812H151.328C151.328 189.263 156.286 200.454 166.173 209.276L168.17 207.037ZM154.328 175.812C154.328 160.411 160.128 148.597 171.71 140.182L169.946 137.755C157.528 146.778 151.328 159.527 151.328 175.812H154.328ZM171.711 140.181C183.455 131.624 200.068 127.25 221.734 127.25V124.25C199.713 124.25 182.389 128.689 169.945 137.756L171.711 140.181ZM221.734 127.25H247.047V124.25H221.734V127.25ZM248.547 125.75V113.797H245.547V125.75H248.547ZM248.547 113.797C248.547 104.384 245.721 96.7501 239.942 91.0708L237.839 93.2105C242.935 98.2187 245.547 105.022 245.547 113.797H248.547ZM239.951 91.08C234.14 85.2686 225.682 82.4844 214.844 82.4844V85.4844C225.193 85.4844 232.766 88.1376 237.83 93.2013L239.951 91.08ZM214.844 82.4844C205.301 82.4844 197.189 84.8988 190.603 89.8135L192.397 92.2178C198.374 87.7574 205.824 85.4844 214.844 85.4844V82.4844ZM190.603 89.8135C184.018 94.7272 180.578 100.814 180.578 108.031H183.578C183.578 101.936 186.419 96.679 192.397 92.2178L190.603 89.8135ZM182.078 106.531H155.922V109.531H182.078V106.531ZM157.422 108.031C157.422 100.817 159.953 93.8159 165.132 87.0014L162.743 85.1861C157.235 92.4341 154.422 100.058 154.422 108.031H157.422ZM165.13 87.0038C170.398 80.1008 177.501 74.6227 186.489 70.5872L185.261 67.8503C175.874 72.0648 168.352 77.8367 162.745 85.1837L165.13 87.0038ZM186.484 70.5895C195.557 66.5571 205.519 64.5312 216.391 64.5312V61.5312C205.137 61.5312 194.755 63.6304 185.266 67.848L186.484 70.5895ZM216.391 64.5312C233.675 64.5312 247.013 68.8722 256.599 77.3723L258.589 75.1277C248.299 66.0028 234.169 61.5312 216.391 61.5312V64.5312ZM256.604 77.3775C266.175 85.7741 271.196 97.3962 271.563 112.427L274.562 112.354C274.179 96.635 268.888 84.1634 258.583 75.1225L256.604 77.3775ZM271.562 112.391V182.422H274.562V112.391H271.562ZM271.562 182.422C271.562 196.494 273.353 207.832 277.029 216.345L279.783 215.155C276.334 207.168 274.562 196.288 274.562 182.422H271.562ZM276.906 215.75V218H279.906V215.75H276.906ZM278.406 216.5H251.125V219.5H278.406V216.5ZM207.953 199.672C216.382 199.672 224.374 197.488 231.906 193.143L230.407 190.544C223.314 194.637 215.837 196.672 207.953 196.672V199.672ZM231.906 193.143C239.444 188.794 244.968 183.099 248.396 176.046L245.698 174.735C242.564 181.182 237.493 186.456 230.407 190.544L231.906 193.143ZM248.547 175.391V144.172H245.547V175.391H248.547ZM247.047 142.672H226.656V145.672H247.047V142.672ZM226.656 142.672C210.622 142.672 198.349 145.009 190.039 149.873C181.605 154.81 177.344 162.302 177.344 172.156H180.344C180.344 163.354 184.051 156.854 191.555 152.463C199.182 147.998 210.816 145.672 226.656 145.672V142.672ZM177.344 172.156C177.344 180.682 180.206 187.505 186.032 192.427L187.968 190.135C182.919 185.87 180.344 179.943 180.344 172.156H177.344ZM186.032 192.427C191.791 197.293 199.141 199.672 207.953 199.672V196.672C199.703 196.672 193.084 194.457 187.968 190.135L186.032 192.427ZM394.422 161.328L393.522 162.528L393.534 162.537L393.546 162.546L394.422 161.328ZM366.719 151.203L366.404 152.67L366.407 152.67L366.719 151.203ZM335.359 141.078L334.676 142.413L334.682 142.417L335.359 141.078ZM318.203 127.016L316.958 127.853L316.963 127.86L316.968 127.867L318.203 127.016ZM328.469 75.9688L327.522 74.8055L327.517 74.8097L328.469 75.9688ZM410.875 76.3906L409.915 77.543L409.92 77.5471L410.875 76.3906ZM427.047 110.562V112.062H428.547V110.562H427.047ZM400.891 110.562H399.391V112.062H400.891V110.562ZM391.75 92.1406L390.772 93.2783L390.781 93.2857L391.75 92.1406ZM373.047 130.109L372.718 131.573L372.72 131.573L373.047 130.109ZM422.547 155.141L421.302 155.977L421.31 155.989L421.318 156.001L422.547 155.141ZM412.141 208.578L413.041 209.778L413.047 209.773L412.141 208.578ZM315.391 196.344L314.147 197.183L314.153 197.191L314.159 197.2L315.391 196.344ZM307.516 171.172V169.672H306.016V171.172H307.516ZM333.531 171.172L335.029 171.091L334.953 169.672H333.531V171.172ZM343.938 191.984L343.003 193.157L343.012 193.165L343.021 193.172L343.938 191.984ZM393.438 193.672L394.27 194.92L394.274 194.917L393.438 193.672ZM403.938 177.641C403.938 170.165 401.064 164.258 395.298 160.11L393.546 162.546C398.468 166.086 400.938 171.053 400.938 177.641H403.938ZM395.322 160.128C389.795 155.983 380.284 152.556 367.031 149.736L366.407 152.67C379.591 155.476 388.549 158.799 393.522 162.528L395.322 160.128ZM367.033 149.736C353.974 146.938 343.659 143.597 336.037 139.74L334.682 142.417C342.623 146.435 353.213 149.843 366.404 152.67L367.033 149.736ZM336.043 139.743C328.511 135.885 323.01 131.344 319.438 126.164L316.968 127.867C320.896 133.562 326.833 138.396 334.676 142.413L336.043 139.743ZM319.448 126.179C315.981 121.023 314.219 114.856 314.219 107.609H311.219C311.219 115.363 313.113 122.133 316.958 127.853L319.448 126.179ZM314.219 107.609C314.219 95.6335 319.232 85.497 329.421 77.1278L327.517 74.8097C316.705 83.6905 311.219 94.6478 311.219 107.609H314.219ZM329.416 77.132C339.691 68.7663 352.835 64.5312 368.969 64.5312V61.5312C352.29 61.5312 338.434 65.9212 327.522 74.8055L329.416 77.132ZM368.969 64.5312C385.955 64.5312 399.557 68.9113 409.915 77.543L411.835 75.2383C400.818 66.0575 386.483 61.5312 368.969 61.5312V64.5312ZM409.92 77.5471C420.359 86.171 425.547 97.139 425.547 110.562H428.547C428.547 96.236 422.953 84.4228 411.83 75.2342L409.92 77.5471ZM427.047 109.062H400.891V112.062H427.047V109.062ZM402.391 110.562C402.391 102.94 399.104 96.3983 392.719 90.9955L390.781 93.2857C396.584 98.1955 399.391 103.935 399.391 110.562H402.391ZM392.728 91.003C386.413 85.5759 378.454 82.9062 368.969 82.9062V85.9062C377.859 85.9062 385.087 88.3928 390.772 93.2783L392.728 91.003ZM368.969 82.9062C359.299 82.9062 351.527 85.0112 345.833 89.4064L347.667 91.7811C352.66 87.9263 359.701 85.9062 368.969 85.9062V82.9062ZM345.833 89.4064C340.128 93.8107 337.234 99.6369 337.234 106.766H340.234C340.234 100.582 342.685 95.6268 347.667 91.7811L345.833 89.4064ZM337.234 106.766C337.234 113.519 339.947 118.747 345.378 122.231L346.997 119.706C342.491 116.815 340.234 112.575 340.234 106.766H337.234ZM345.378 122.231C350.587 125.573 359.769 128.664 372.718 131.573L373.376 128.646C360.449 125.742 351.725 122.739 346.997 119.706L345.378 122.231ZM372.72 131.573C385.684 134.464 396.102 137.9 404.017 141.857L405.358 139.174C397.148 135.069 386.473 131.567 373.373 128.645L372.72 131.573ZM404.017 141.857C411.917 145.807 417.641 150.53 421.302 155.977L423.792 154.304C419.766 148.314 413.583 143.286 405.358 139.174L404.017 141.857ZM421.318 156.001C425.048 161.329 426.953 167.905 426.953 175.812H429.953C429.953 167.408 427.921 160.202 423.776 154.28L421.318 156.001ZM426.953 175.812C426.953 188.935 421.737 199.415 411.234 207.383L413.047 209.773C424.294 201.241 429.953 189.878 429.953 175.812H426.953ZM411.241 207.378C400.689 215.292 386.922 219.312 369.812 219.312V222.312C387.391 222.312 401.842 218.177 413.041 209.778L411.241 207.378ZM369.812 219.312C357.803 219.312 347.242 217.188 338.096 212.981L336.842 215.706C346.446 220.124 357.447 222.312 369.812 222.312V219.312ZM338.096 212.981C328.938 208.769 321.798 202.933 316.622 195.488L314.159 197.2C319.671 205.129 327.249 211.294 336.842 215.706L338.096 212.981ZM316.634 195.505C311.544 187.96 309.016 179.86 309.016 171.172H306.016C306.016 180.484 308.738 189.165 314.147 197.183L316.634 195.505ZM307.516 172.672H333.531V169.672H307.516V172.672ZM332.033 171.252C332.524 180.372 336.178 187.718 343.003 193.157L344.872 190.811C338.759 185.939 335.476 179.409 335.029 171.091L332.033 171.252ZM343.021 193.172C349.914 198.489 358.89 201.078 369.812 201.078V198.078C359.36 198.078 351.086 195.605 344.854 190.797L343.021 193.172ZM369.812 201.078C379.842 201.078 388.039 199.074 394.27 194.92L392.605 192.424C387.024 196.145 379.471 198.078 369.812 198.078V201.078ZM394.274 194.917C400.647 190.635 403.938 184.845 403.938 177.641H400.938C400.938 183.749 398.228 188.646 392.601 192.427L394.274 194.917ZM488.359 84.2656H486.859V88.4822L489.522 85.213L488.359 84.2656ZM582.016 117.453H583.516L583.516 117.441L582.016 117.453ZM582.016 218V219.5H583.516V218H582.016ZM556 218H554.5V219.5H556V218ZM556 117.312H557.5L557.5 117.3L556 117.312ZM548.406 92.9844L547.307 94.0051L547.312 94.0103L547.317 94.0155L548.406 92.9844ZM488.359 109.578L487.011 108.921L486.859 109.232V109.578H488.359ZM488.359 218V219.5H489.859V218H488.359ZM462.344 218H460.844V219.5H462.344V218ZM462.344 2V0.5H460.844V2H462.344ZM488.359 2H489.859V0.5H488.359V2ZM489.522 85.213C500.765 71.4111 515.336 64.5312 533.359 64.5312V61.5312C514.446 61.5312 499.016 68.8077 487.196 83.3183L489.522 85.213ZM533.359 64.5312C549.155 64.5312 560.782 68.9785 568.522 77.6365C576.293 86.3282 580.377 99.5148 580.516 117.465L583.516 117.441C583.373 99.1102 579.207 85.0859 570.759 75.6369C562.281 66.1543 549.72 61.5312 533.359 61.5312V64.5312ZM580.516 117.453V218H583.516V117.453H580.516ZM582.016 216.5H556V219.5H582.016V216.5ZM557.5 218V117.312H554.5V218H557.5ZM557.5 117.3C557.405 106.143 554.832 97.5915 549.496 91.9533L547.317 94.0155C551.918 98.8772 554.408 106.545 554.5 117.325L557.5 117.3ZM549.505 91.9637C544.239 86.2916 536.117 83.6094 525.484 83.6094V86.6094C535.665 86.6094 542.824 89.1771 547.307 94.0051L549.505 91.9637ZM525.484 83.6094C516.764 83.6094 509.05 85.9406 502.401 90.6339L504.131 93.0848C510.232 88.7782 517.33 86.6094 525.484 86.6094V83.6094ZM502.401 90.6339C495.81 95.286 490.679 101.391 487.011 108.921L489.708 110.235C493.165 103.14 497.971 97.4328 504.131 93.0848L502.401 90.6339ZM486.859 109.578V218H489.859V109.578H486.859ZM488.359 216.5H462.344V219.5H488.359V216.5ZM463.844 218V2H460.844V218H463.844ZM462.344 3.5H488.359V0.5H462.344V3.5ZM486.859 2V84.2656H489.859V2H486.859ZM36.9531 556V557.5H38.4531V556H36.9531ZM10.9375 556H9.4375V557.5H10.9375V556ZM10.9375 403.844V402.344H9.4375V403.844H10.9375ZM36.9531 403.844H38.4531V402.344H36.9531V403.844ZM12.625 352.797L11.5118 351.791L11.5028 351.801L11.4939 351.812L12.625 352.797ZM12.625 374.031L11.5101 375.035L11.5191 375.045L11.5284 375.055L12.625 374.031ZM36.9531 554.5H10.9375V557.5H36.9531V554.5ZM12.4375 556V403.844H9.4375V556H12.4375ZM10.9375 405.344H36.9531V402.344H10.9375V405.344ZM35.4531 403.844V556H38.4531V403.844H35.4531ZM10.3281 363.484C10.3281 359.591 11.4859 356.389 13.7561 353.782L11.4939 351.812C8.70158 355.018 7.32812 358.94 7.32812 363.484H10.3281ZM13.7382 353.802C16.001 351.297 19.3862 349.938 24.1562 349.938V346.938C18.8013 346.938 14.499 348.484 11.5118 351.791L13.7382 353.802ZM24.1562 349.938C28.9263 349.938 32.3115 351.297 34.5743 353.802L36.8007 351.791C33.8135 348.484 29.5112 346.938 24.1562 346.938V349.938ZM34.5743 353.802C36.9302 356.411 38.125 359.606 38.125 363.484H41.125C41.125 358.925 39.6948 354.996 36.8007 351.791L34.5743 353.802ZM38.125 363.484C38.125 367.363 36.9307 370.501 34.5909 373.008L36.7841 375.055C39.6943 371.937 41.125 368.043 41.125 363.484H38.125ZM34.5909 373.008C32.3316 375.428 28.9408 376.75 24.1562 376.75V379.75C29.4967 379.75 33.7934 378.259 36.7841 375.055L34.5909 373.008ZM24.1562 376.75C19.3717 376.75 15.9809 375.428 13.7216 373.008L11.5284 375.055C14.5191 378.259 18.8158 379.75 24.1562 379.75V376.75ZM13.7399 373.028C11.4857 370.523 10.3281 367.378 10.3281 363.484H7.32812C7.32812 368.028 8.70185 371.914 11.5101 375.035L13.7399 373.028ZM103.188 403.844L104.686 403.781L104.626 402.344H103.188V403.844ZM103.891 420.719L102.392 420.781L102.551 424.61L105.034 421.69L103.891 420.719ZM192.484 425.5L191.128 426.139L192.237 428.493L193.718 426.354L192.484 425.5ZM212.172 407.781L211.447 406.468L211.441 406.471L212.172 407.781ZM291.906 454.047H293.406V454.035L293.406 454.023L291.906 454.047ZM291.906 556V557.5H293.406V556H291.906ZM265.891 556H264.391V557.5H265.891V556ZM258.438 431.266L257.33 432.278L257.339 432.287L258.438 431.266ZM209.359 431.828L210.361 432.945L210.37 432.937L209.359 431.828ZM198.25 455.031L196.758 454.873L196.75 454.952V455.031H198.25ZM198.25 556V557.5H199.75V556H198.25ZM172.094 556H170.594V557.5H172.094V556ZM104.594 444.906L103.217 444.311L103.094 444.596V444.906H104.594ZM104.594 556V557.5H106.094V556H104.594ZM78.5781 556H77.0781V557.5H78.5781V556ZM78.5781 403.844V402.344H77.0781V403.844H78.5781ZM101.689 403.906L102.392 420.781L105.389 420.656L104.686 403.781L101.689 403.906ZM105.034 421.69C115.874 408.936 130.484 402.531 149.031 402.531V399.531C129.703 399.531 114.219 406.251 102.748 419.747L105.034 421.69ZM149.031 402.531C159.485 402.531 168.156 404.535 175.119 408.455C182.067 412.368 187.405 418.24 191.128 426.139L193.841 424.861C189.877 416.448 184.128 410.085 176.591 405.841C169.07 401.606 159.859 399.531 149.031 399.531V402.531ZM193.718 426.354C198.645 419.237 205.033 413.484 212.903 409.091L211.441 406.471C203.186 411.079 196.449 417.138 191.251 424.646L193.718 426.354ZM212.896 409.095C220.793 404.738 230.143 402.531 241 402.531V399.531C229.732 399.531 219.864 401.824 211.447 406.468L212.896 409.095ZM241 402.531C257.432 402.531 269.565 406.877 277.676 415.324C285.801 423.786 290.129 436.611 290.406 454.071L293.406 454.023C293.121 436.139 288.683 422.456 279.84 413.246C270.982 404.021 257.943 399.531 241 399.531V402.531ZM290.406 454.047V556H293.406V454.047H290.406ZM291.906 554.5H265.891V557.5H291.906V554.5ZM267.391 556V455.594H264.391V556H267.391ZM267.391 455.594C267.391 444.522 264.865 435.975 259.536 430.244L257.339 432.287C261.948 437.244 264.391 444.916 264.391 455.594H267.391ZM259.545 430.254C254.161 424.362 245.303 421.609 233.406 421.609V424.609C244.947 424.609 252.776 427.294 257.33 432.277L259.545 430.254ZM233.406 421.609C223.424 421.609 215.034 424.625 208.349 430.72L210.37 432.937C216.435 427.407 224.076 424.609 233.406 424.609V421.609ZM208.358 430.712C201.666 436.714 197.823 444.811 196.758 454.873L199.742 455.189C200.74 445.751 204.302 438.38 210.361 432.945L208.358 430.712ZM196.75 455.031V556H199.75V455.031H196.75ZM198.25 554.5H172.094V557.5H198.25V554.5ZM173.594 556V456.297H170.594V556H173.594ZM173.594 456.297C173.594 445.011 170.832 436.27 165.045 430.357C159.251 424.438 150.677 421.609 139.609 421.609V424.609C150.198 424.609 157.866 427.312 162.901 432.455C167.941 437.605 170.594 445.458 170.594 456.297H173.594ZM139.609 421.609C130.865 421.609 123.391 423.472 117.266 427.285C111.133 431.103 106.46 436.809 103.217 444.311L105.971 445.501C109.009 438.472 113.312 433.28 118.851 429.832C124.398 426.379 131.291 424.609 139.609 424.609V421.609ZM103.094 444.906V556H106.094V444.906H103.094ZM104.594 554.5H78.5781V557.5H104.594V554.5ZM80.0781 556V403.844H77.0781V556H80.0781ZM78.5781 405.344H103.188V402.344H78.5781V405.344ZM359.547 556V557.5H361.047V556H359.547ZM333.531 556H332.031V557.5H333.531V556ZM333.531 403.844V402.344H332.031V403.844H333.531ZM359.547 403.844H361.047V402.344H359.547V403.844ZM335.219 352.797L334.106 351.791L334.097 351.801L334.088 351.812L335.219 352.797ZM335.219 374.031L334.104 375.035L334.113 375.045L334.122 375.055L335.219 374.031ZM359.547 554.5H333.531V557.5H359.547V554.5ZM335.031 556V403.844H332.031V556H335.031ZM333.531 405.344H359.547V402.344H333.531V405.344ZM358.047 403.844V556H361.047V403.844H358.047ZM332.922 363.484C332.922 359.591 334.08 356.389 336.35 353.782L334.088 351.812C331.295 355.018 329.922 358.94 329.922 363.484H332.922ZM336.332 353.802C338.595 351.297 341.98 349.938 346.75 349.938V346.938C341.395 346.938 337.093 348.484 334.106 351.791L336.332 353.802ZM346.75 349.938C351.52 349.938 354.905 351.297 357.168 353.802L359.394 351.791C356.407 348.484 352.105 346.938 346.75 346.938V349.938ZM357.168 353.802C359.524 356.411 360.719 359.606 360.719 363.484H363.719C363.719 358.925 362.289 354.996 359.394 351.791L357.168 353.802ZM360.719 363.484C360.719 367.363 359.524 370.501 357.185 373.008L359.378 375.055C362.288 371.937 363.719 368.043 363.719 363.484H360.719ZM357.185 373.008C354.925 375.428 351.535 376.75 346.75 376.75V379.75C352.09 379.75 356.387 378.259 359.378 375.055L357.185 373.008ZM346.75 376.75C341.965 376.75 338.575 375.428 336.315 373.008L334.122 375.055C337.113 378.259 341.41 379.75 346.75 379.75V376.75ZM336.334 373.028C334.079 370.523 332.922 367.378 332.922 363.484H329.922C329.922 368.028 331.296 371.914 334.104 375.035L336.334 373.028Z" fill="black"/>
</svg>
