<svg width="1085" height="229" viewBox="0 0 1085 229" fill="#11cbd7" xmlns="http://www.w3.org/2000/svg">
<path d="M89.1562 115.406C89.1562 111.469 88.2188 108.141 86.3438 105.422C84.5625 102.609 82.2188 100.359 79.3125 98.6719C76.4062 96.8906 73.1719 95.625 69.6094 94.875C66.0469 94.0312 62.5781 93.6094 59.2031 93.6094C55.4531 93.6094 51.9844 94.0312 48.7969 94.875C45.7031 95.7188 43.0312 96.9375 40.7812 98.5312C38.5312 100.125 36.75 102.094 35.4375 104.438C34.2188 106.688 33.6094 109.219 33.6094 112.031C33.6094 116.906 35.0625 120.797 37.9688 123.703C40.9688 126.516 45.9375 129.141 52.875 131.578L80.8594 141.422C92.8594 145.453 101.625 150.938 107.156 157.875C112.688 164.812 115.453 173.109 115.453 182.766C115.453 189.234 114.141 195.188 111.516 200.625C108.984 205.969 105.328 210.562 100.547 214.406C95.8594 218.156 90.1875 221.062 83.5312 223.125C76.875 225.281 69.4688 226.359 61.3125 226.359C49.9688 226.359 40.7344 224.531 33.6094 220.875C26.4844 217.219 21 212.391 17.1562 206.391H2.53125V182.203H31.6406C31.6406 186.234 32.4844 189.703 34.1719 192.609C35.9531 195.422 38.25 197.719 41.0625 199.5C43.9688 201.281 47.2031 202.594 50.7656 203.438C54.4219 204.281 58.125 204.703 61.875 204.703C65.5312 204.703 69.0469 204.281 72.4219 203.438C75.7969 202.5 78.75 201.188 81.2812 199.5C83.9062 197.719 85.9688 195.609 87.4688 193.172C88.9688 190.734 89.7188 187.969 89.7188 184.875C89.7188 180.188 88.1719 176.203 85.0781 172.922C82.0781 169.641 76.9219 166.688 69.6094 164.062L41.7656 153.656C30.4219 149.625 21.9844 144.516 16.4531 138.328C11.0156 132.047 8.29688 124.219 8.29688 114.844C8.29688 108.656 9.42188 102.938 11.6719 97.6875C14.0156 92.4375 17.3438 87.9375 21.6562 84.1875C26.0625 80.3438 31.4062 77.3438 37.6875 75.1875C43.9688 73.0312 51.1406 71.9531 59.2031 71.9531C69.6094 71.9531 78.3281 73.4062 85.3594 76.3125C92.3906 79.2188 98.7188 84.1875 104.344 91.2188H117.984V115.406H89.1562ZM230.484 208.5C224.953 213.656 218.812 217.875 212.062 221.156C205.406 224.438 197.812 226.078 189.281 226.078C182.156 226.078 175.594 224.953 169.594 222.703C163.688 220.453 158.578 217.406 154.266 213.562C149.953 209.625 146.578 205.078 144.141 199.922C141.797 194.766 140.625 189.281 140.625 183.469C140.625 177.281 141.516 171.797 143.297 167.016C145.172 162.234 147.609 158.109 150.609 154.641C153.703 151.078 157.266 148.125 161.297 145.781C165.422 143.344 169.688 141.422 174.094 140.016C178.594 138.516 183.141 137.484 187.734 136.922C192.422 136.266 196.875 135.938 201.094 135.938C207.844 135.938 213.516 136.172 218.109 136.641C222.703 137.016 226.875 137.578 230.625 138.328L230.766 126.375C230.766 121.219 230.016 116.766 228.516 113.016C227.016 109.172 224.906 106.031 222.188 103.594C219.469 101.062 216.188 99.1875 212.344 97.9688C208.594 96.75 204.375 96.1406 199.688 96.1406C195.281 96.1406 191.062 96.4688 187.031 97.125C183 97.6875 179.203 98.4844 175.641 99.5156C172.172 100.453 168.938 101.578 165.938 102.891C163.031 104.109 160.547 105.422 158.484 106.828L149.906 88.6875C153.375 86.4375 157.172 84.375 161.297 82.5C165.422 80.5312 169.734 78.8906 174.234 77.5781C178.828 76.1719 183.469 75.0938 188.156 74.3438C192.938 73.5 197.625 73.0781 202.219 73.0781C210.656 73.0781 218.25 74.1094 225 76.1719C231.75 78.1406 237.469 81.2344 242.156 85.4531C246.844 89.6719 250.453 95.0625 252.984 101.625C255.516 108.094 256.781 115.875 256.781 124.969L256.641 197.812H272.812V222H230.484V208.5ZM195.047 204.141C198.516 204.141 201.984 203.719 205.453 202.875C208.922 202.031 212.203 200.906 215.297 199.5C218.391 198 221.25 196.312 223.875 194.438C226.5 192.469 228.703 190.453 230.484 188.391L230.625 155.484H200.25C195.188 155.484 190.547 156.047 186.328 157.172C182.203 158.297 178.594 159.938 175.5 162.094C172.5 164.25 170.156 166.922 168.469 170.109C166.781 173.297 165.938 176.953 165.938 181.078C165.938 184.922 166.641 188.297 168.047 191.203C169.453 194.016 171.422 196.406 173.953 198.375C176.578 200.25 179.672 201.703 183.234 202.734C186.797 203.672 190.734 204.141 195.047 204.141ZM386.438 115.406C386.438 111.469 385.5 108.141 383.625 105.422C381.844 102.609 379.5 100.359 376.594 98.6719C373.688 96.8906 370.453 95.625 366.891 94.875C363.328 94.0312 359.859 93.6094 356.484 93.6094C352.734 93.6094 349.266 94.0312 346.078 94.875C342.984 95.7188 340.312 96.9375 338.062 98.5312C335.812 100.125 334.031 102.094 332.719 104.438C331.5 106.688 330.891 109.219 330.891 112.031C330.891 116.906 332.344 120.797 335.25 123.703C338.25 126.516 343.219 129.141 350.156 131.578L378.141 141.422C390.141 145.453 398.906 150.938 404.438 157.875C409.969 164.812 412.734 173.109 412.734 182.766C412.734 189.234 411.422 195.188 408.797 200.625C406.266 205.969 402.609 210.562 397.828 214.406C393.141 218.156 387.469 221.062 380.812 223.125C374.156 225.281 366.75 226.359 358.594 226.359C347.25 226.359 338.016 224.531 330.891 220.875C323.766 217.219 318.281 212.391 314.438 206.391H299.812V182.203H328.922C328.922 186.234 329.766 189.703 331.453 192.609C333.234 195.422 335.531 197.719 338.344 199.5C341.25 201.281 344.484 202.594 348.047 203.438C351.703 204.281 355.406 204.703 359.156 204.703C362.812 204.703 366.328 204.281 369.703 203.438C373.078 202.5 376.031 201.188 378.562 199.5C381.188 197.719 383.25 195.609 384.75 193.172C386.25 190.734 387 187.969 387 184.875C387 180.188 385.453 176.203 382.359 172.922C379.359 169.641 374.203 166.688 366.891 164.062L339.047 153.656C327.703 149.625 319.266 144.516 313.734 138.328C308.297 132.047 305.578 124.219 305.578 114.844C305.578 108.656 306.703 102.938 308.953 97.6875C311.297 92.4375 314.625 87.9375 318.938 84.1875C323.344 80.3438 328.688 77.3438 334.969 75.1875C341.25 73.0312 348.422 71.9531 356.484 71.9531C366.891 71.9531 375.609 73.4062 382.641 76.3125C389.672 79.2188 396 84.1875 401.625 91.2188H415.266V115.406H386.438ZM444.094 3.1875H490.219V92.3438H491.062C493.688 89.7188 496.688 87.2812 500.062 85.0312C503.531 82.6875 507.141 80.6719 510.891 78.9844C514.641 77.2969 518.531 75.9844 522.562 75.0469C526.594 74.1094 530.812 73.6406 535.219 73.6406C543 73.6406 550.031 74.7188 556.312 76.875C562.594 79.0312 567.938 82.3125 572.344 86.7188C576.75 91.125 580.125 96.7969 582.469 103.734C584.906 110.578 586.125 118.688 586.125 128.062V197.812H608.062V222H538.875V197.812H558.844V131.297C558.844 120.141 555.984 111.703 550.266 105.984C544.641 100.172 536.531 97.2656 525.938 97.2656C519.938 97.2656 513.844 98.7188 507.656 101.625C501.469 104.438 495.656 108 490.219 112.312V197.812H511.312V222H442.125V197.812H464.062V27.375H444.094V3.1875ZM631.406 76.3125H678.938V197.812H700.875V222H631.688V197.812H652.5V100.5H631.406V76.3125ZM647.578 24.7031C647.578 22.2656 648.047 19.9687 648.984 17.8125C650.016 15.5625 651.328 13.6406 652.922 12.0469C654.609 10.3594 656.578 9.04688 658.828 8.10938C661.078 7.07813 663.469 6.5625 666 6.5625C668.438 6.5625 670.734 7.07813 672.891 8.10938C675.141 9.04688 677.062 10.3594 678.656 12.0469C680.344 13.6406 681.656 15.5625 682.594 17.8125C683.625 19.9687 684.141 22.2656 684.141 24.7031C684.141 27.2344 683.625 29.625 682.594 31.875C681.656 34.125 680.344 36.1406 678.656 37.9219C677.062 39.6094 675.141 40.9688 672.891 42C670.734 42.9375 668.438 43.4062 666 43.4062C663.469 43.4062 661.078 42.9375 658.828 42C656.578 40.9688 654.609 39.6094 652.922 37.9219C651.328 36.1406 650.016 34.125 648.984 31.875C648.047 29.625 647.578 27.2344 647.578 24.7031ZM725.062 76.3125H771.469V93.3281H771.75C774.938 90.6094 778.266 88.0781 781.734 85.7344C785.297 83.2969 789 81.1875 792.844 79.4062C796.688 77.625 800.672 76.2188 804.797 75.1875C809.016 74.1562 813.375 73.6406 817.875 73.6406C828.375 73.6406 837.422 75.6094 845.016 79.5469C852.609 83.3906 858.469 89.4375 862.594 97.6875C866.156 94.5 869.906 91.4531 873.844 88.5469C877.781 85.5469 881.859 82.9688 886.078 80.8125C890.391 78.6562 894.891 76.9219 899.578 75.6094C904.266 74.2969 909.141 73.6406 914.203 73.6406C922.078 73.6406 929.156 74.7188 935.438 76.875C941.719 79.0312 947.062 82.3125 951.469 86.7188C955.875 91.125 959.203 96.7969 961.453 103.734C963.797 110.578 964.969 118.688 964.969 128.062V197.812H985.219V222H917.156V197.812H937.688V131.297C937.688 120.141 934.875 111.703 929.25 105.984C923.625 100.172 915.516 97.2656 904.922 97.2656C898.641 97.2656 892.219 98.7656 885.656 101.766C879.094 104.766 873.469 108.562 868.781 113.156V197.812H888.891V222H820.969V197.812H841.5V131.297C841.5 120.141 838.641 111.703 832.922 105.984C827.297 100.172 819.188 97.2656 808.594 97.2656C802.5 97.2656 796.359 98.7188 790.172 101.625C783.984 104.531 778.125 108.141 772.594 112.453V197.812H793.125V222H725.062V197.812H745.312V100.5H725.062V76.3125ZM1012.22 76.3125H1059.75V197.812H1081.69V222H1012.5V197.812H1033.31V100.5H1012.22V76.3125ZM1028.39 24.7031C1028.39 22.2656 1028.86 19.9687 1029.8 17.8125C1030.83 15.5625 1032.14 13.6406 1033.73 12.0469C1035.42 10.3594 1037.39 9.04688 1039.64 8.10938C1041.89 7.07813 1044.28 6.5625 1046.81 6.5625C1049.25 6.5625 1051.55 7.07813 1053.7 8.10938C1055.95 9.04688 1057.88 10.3594 1059.47 12.0469C1061.16 13.6406 1062.47 15.5625 1063.41 17.8125C1064.44 19.9687 1064.95 22.2656 1064.95 24.7031C1064.95 27.2344 1064.44 29.625 1063.41 31.875C1062.47 34.125 1061.16 36.1406 1059.47 37.9219C1057.88 39.6094 1055.95 40.9688 1053.7 42C1051.55 42.9375 1049.25 43.4062 1046.81 43.4062C1044.28 43.4062 1041.89 42.9375 1039.64 42C1037.39 40.9688 1035.42 39.6094 1033.73 37.9219C1032.14 36.1406 1030.83 34.125 1029.8 31.875C1028.86 29.625 1028.39 27.2344 1028.39 24.7031Z" fill=""/>
<path d="M89.1562 115.406H86.6562V117.906H89.1562V115.406ZM86.3438 105.422L84.2317 106.76L84.2579 106.801L84.2857 106.841L86.3438 105.422ZM79.3125 98.6719L78.0061 100.803L78.0314 100.819L78.0572 100.834L79.3125 98.6719ZM69.6094 94.875L69.0332 97.3077L69.0637 97.3149L69.0943 97.3214L69.6094 94.875ZM48.7969 94.875L48.1571 92.4582L48.1481 92.4606L48.1391 92.4631L48.7969 94.875ZM35.4375 104.438L33.2562 103.216L33.2476 103.231L33.2393 103.247L35.4375 104.438ZM37.9688 123.703L36.201 125.471L36.2295 125.499L36.2589 125.527L37.9688 123.703ZM52.875 131.578L53.7046 129.22L53.7037 129.219L52.875 131.578ZM80.8594 141.422L80.0298 143.78L80.0465 143.786L80.0633 143.792L80.8594 141.422ZM111.516 200.625L109.264 199.538L109.26 199.546L109.256 199.555L111.516 200.625ZM100.547 214.406L102.109 216.358L102.113 216.355L100.547 214.406ZM83.5312 223.125L82.7913 220.737L82.776 220.742L82.7608 220.747L83.5312 223.125ZM17.1562 206.391L19.2613 205.042L18.5237 203.891H17.1562V206.391ZM2.53125 206.391H0.03125V208.891H2.53125V206.391ZM2.53125 182.203V179.703H0.03125V182.203H2.53125ZM31.6406 182.203H34.1406V179.703H31.6406V182.203ZM34.1719 192.609L32.0099 193.865L32.0341 193.906L32.0598 193.947L34.1719 192.609ZM41.0625 199.5L39.7249 201.612L39.7404 201.622L39.7561 201.632L41.0625 199.5ZM50.7656 203.438L50.1895 205.87L50.1965 205.872L50.2035 205.873L50.7656 203.438ZM72.4219 203.438L73.0282 205.863L73.0597 205.855L73.091 205.846L72.4219 203.438ZM81.2812 199.5L82.668 201.58L82.6765 201.574L82.685 201.569L81.2812 199.5ZM85.0781 172.922L83.2331 174.609L83.246 174.623L83.2592 174.637L85.0781 172.922ZM69.6094 164.062L68.7342 166.404L68.7494 166.41L68.7647 166.415L69.6094 164.062ZM41.7656 153.656L42.6408 151.314L42.6219 151.307L42.6028 151.301L41.7656 153.656ZM16.4531 138.328L14.563 139.964L14.576 139.979L14.5893 139.994L16.4531 138.328ZM11.6719 97.6875L9.38903 96.6684L9.38139 96.6855L9.37401 96.7027L11.6719 97.6875ZM21.6562 84.1875L23.2967 86.074L23.2997 86.0714L21.6562 84.1875ZM104.344 91.2188L102.392 92.7805L103.142 93.7188H104.344V91.2188ZM117.984 91.2188H120.484V88.7188H117.984V91.2188ZM117.984 115.406V117.906H120.484V115.406H117.984ZM91.6562 115.406C91.6562 111.061 90.6163 107.214 88.4018 104.003L84.2857 106.841C85.8212 109.068 86.6562 111.876 86.6562 115.406H91.6562ZM88.4558 104.084C86.4573 100.929 83.8184 98.3973 80.5678 96.5099L78.0572 100.834C80.6191 102.321 82.6677 104.29 84.2317 106.76L88.4558 104.084ZM80.6189 96.5404C77.4527 94.5998 73.9476 93.2335 70.1244 92.4286L69.0943 97.3214C72.3961 98.0165 75.3598 99.1815 78.0061 100.803L80.6189 96.5404ZM70.1855 92.4423C66.4501 91.5576 62.7878 91.1094 59.2031 91.1094V96.1094C62.3685 96.1094 65.6437 96.5049 69.0332 97.3077L70.1855 92.4423ZM59.2031 91.1094C55.2662 91.1094 51.5797 91.5523 48.1571 92.4582L49.4366 97.2918C52.3891 96.5102 55.6401 96.1094 59.2031 96.1094V91.1094ZM48.1391 92.4631C44.8083 93.3715 41.8603 94.7033 39.3362 96.4912L42.2263 100.571C44.2022 99.1717 46.5979 98.066 49.4547 97.2869L48.1391 92.4631ZM39.3362 96.4912C36.7913 98.2938 34.7552 100.539 33.2562 103.216L37.6188 105.659C38.7448 103.648 40.2712 101.956 42.2263 100.571L39.3362 96.4912ZM33.2393 103.247C31.8033 105.898 31.1094 108.845 31.1094 112.031H36.1094C36.1094 109.592 36.6342 107.477 37.6357 105.628L33.2393 103.247ZM31.1094 112.031C31.1094 117.437 32.7398 122.01 36.201 125.471L39.7365 121.935C37.3852 119.584 36.1094 116.376 36.1094 112.031H31.1094ZM36.2589 125.527C39.6391 128.696 44.9992 131.461 52.0463 133.937L53.7037 129.219C46.8758 126.82 42.2984 124.335 39.6786 121.879L36.2589 125.527ZM52.0454 133.936L80.0298 143.78L81.6889 139.064L53.7046 129.22L52.0454 133.936ZM80.0633 143.792C91.7926 147.732 100.073 153.001 105.202 159.434L109.111 156.316C103.177 148.874 93.9261 143.174 81.6555 139.052L80.0633 143.792ZM105.202 159.434C110.348 165.888 112.953 173.622 112.953 182.766H117.953C117.953 172.596 115.027 163.737 109.111 156.316L105.202 159.434ZM112.953 182.766C112.953 188.885 111.714 194.463 109.264 199.538L113.767 201.712C116.567 195.912 117.953 189.583 117.953 182.766H112.953ZM109.256 199.555C106.893 204.544 103.479 208.842 98.9805 212.458L102.113 216.355C107.178 212.283 111.076 207.393 113.775 201.695L109.256 199.555ZM98.9851 212.454C94.5778 215.98 89.1961 218.752 82.7913 220.737L84.2712 225.513C91.1789 223.373 97.1409 220.333 102.109 216.358L98.9851 212.454ZM82.7608 220.747C76.3907 222.81 69.2495 223.859 61.3125 223.859V228.859C69.688 228.859 77.3593 227.752 84.3017 225.503L82.7608 220.747ZM61.3125 223.859C50.2107 223.859 41.4066 222.066 34.7508 218.651L32.468 223.099C40.0622 226.996 49.7268 228.859 61.3125 228.859V223.859ZM34.7508 218.651C27.969 215.171 22.8384 210.626 19.2613 205.042L15.0512 207.739C19.1616 214.155 24.9998 219.267 32.468 223.099L34.7508 218.651ZM17.1562 203.891H2.53125V208.891H17.1562V203.891ZM5.03125 206.391V182.203H0.03125V206.391H5.03125ZM2.53125 184.703H31.6406V179.703H2.53125V184.703ZM29.1406 182.203C29.1406 186.587 30.0606 190.508 32.0099 193.865L36.3338 191.354C34.9082 188.899 34.1406 185.882 34.1406 182.203H29.1406ZM32.0598 193.947C34.0388 197.072 36.6002 199.633 39.7249 201.612L42.4001 197.388C39.8998 195.804 37.8674 193.772 36.2839 191.272L32.0598 193.947ZM39.7561 201.632C42.9044 203.561 46.3882 204.97 50.1895 205.87L51.3418 201.005C48.018 200.218 45.0331 199.001 42.3689 197.368L39.7561 201.632ZM50.2035 205.873C54.044 206.76 57.9357 207.203 61.875 207.203V202.203C58.3143 202.203 54.7998 201.803 51.3278 201.002L50.2035 205.873ZM61.875 207.203C65.7252 207.203 69.4451 206.759 73.0282 205.863L71.8155 201.012C68.6487 201.804 65.3373 202.203 61.875 202.203V207.203ZM73.091 205.846C76.6832 204.848 79.886 203.435 82.668 201.58L79.8945 197.42C77.614 198.94 74.9105 200.152 71.7528 201.029L73.091 205.846ZM82.685 201.569C85.5708 199.61 87.8933 197.252 89.5979 194.482L85.3396 191.862C84.0442 193.967 82.2417 195.827 79.8775 197.431L82.685 201.569ZM89.5979 194.482C91.36 191.619 92.2188 188.393 92.2188 184.875H87.2188C87.2188 187.545 86.5775 189.85 85.3396 191.862L89.5979 194.482ZM92.2188 184.875C92.2188 179.578 90.447 174.972 86.8971 171.207L83.2592 174.637C85.8968 177.434 87.2188 180.797 87.2188 184.875H92.2188ZM86.9232 171.235C83.5143 167.506 77.9024 164.383 70.454 161.71L68.7647 166.415C75.9413 168.992 80.642 171.775 83.2331 174.609L86.9232 171.235ZM70.4846 161.721L42.6408 151.314L40.8904 155.998L68.7342 166.404L70.4846 161.721ZM42.6028 151.301C31.4876 147.351 23.4715 142.428 18.317 136.662L14.5893 139.994C20.4972 146.603 29.3561 151.899 40.9285 156.012L42.6028 151.301ZM18.3433 136.692C13.3499 130.924 10.7969 123.7 10.7969 114.844H5.79688C5.79688 124.737 8.68135 133.17 14.563 139.964L18.3433 136.692ZM10.7969 114.844C10.7969 108.966 11.8639 103.586 13.9697 98.6723L9.37401 96.7027C6.97987 102.289 5.79688 108.346 5.79688 114.844H10.7969ZM13.9547 98.7066C16.151 93.787 19.2606 89.5836 23.2967 86.074L20.0158 82.301C15.4269 86.2914 11.8803 91.088 9.38903 96.6684L13.9547 98.7066ZM23.2997 86.0714C27.4315 82.467 32.4824 79.6175 38.4992 77.5521L36.8758 72.8229C30.3301 75.07 24.6935 78.2205 20.0128 82.3036L23.2997 86.0714ZM38.4992 77.5521C44.4702 75.5023 51.3597 74.4531 59.2031 74.4531V69.4531C50.9216 69.4531 43.4673 70.5602 36.8758 72.8229L38.4992 77.5521ZM59.2031 74.4531C69.3946 74.4531 77.7653 75.8787 84.4044 78.6229L86.3143 74.0021C78.891 70.9338 69.8242 69.4531 59.2031 69.4531V74.4531ZM84.4044 78.6229C90.9794 81.3406 96.9819 86.0184 102.392 92.7805L106.296 89.657C100.456 82.3566 93.8018 77.0969 86.3143 74.0021L84.4044 78.6229ZM104.344 93.7188H117.984V88.7188H104.344V93.7188ZM115.484 91.2188V115.406H120.484V91.2188H115.484ZM117.984 112.906H89.1562V117.906H117.984V112.906ZM230.484 208.5H232.984V202.752L228.78 206.671L230.484 208.5ZM212.062 221.156L210.97 218.908L210.957 218.914L212.062 221.156ZM169.594 222.703L168.704 225.039L168.716 225.044L169.594 222.703ZM154.266 213.562L152.58 215.409L152.591 215.419L152.602 215.429L154.266 213.562ZM144.141 199.922L141.865 200.956L141.872 200.973L141.88 200.99L144.141 199.922ZM143.297 167.016L140.969 166.103L140.962 166.123L140.954 166.143L143.297 167.016ZM150.609 154.641L148.722 153.001L148.718 153.005L150.609 154.641ZM161.297 145.781L162.553 147.943L162.561 147.938L162.569 147.934L161.297 145.781ZM174.094 140.016L174.854 142.397L174.869 142.392L174.884 142.387L174.094 140.016ZM187.734 136.922L188.038 139.403L188.06 139.401L188.081 139.398L187.734 136.922ZM218.109 136.641L217.856 139.128L217.881 139.13L217.906 139.132L218.109 136.641ZM230.625 138.328L230.135 140.78L233.089 141.371L233.125 138.358L230.625 138.328ZM230.766 126.375L233.265 126.404L233.266 126.39V126.375H230.766ZM228.516 113.016L226.187 113.924L226.191 113.934L226.194 113.944L228.516 113.016ZM222.188 103.594L220.484 105.423L220.501 105.439L220.519 105.455L222.188 103.594ZM212.344 97.9688L211.571 100.346L211.58 100.349L211.588 100.352L212.344 97.9688ZM187.031 97.125L187.377 99.601L187.405 99.5971L187.433 99.5925L187.031 97.125ZM175.641 99.5156L176.293 101.929L176.314 101.923L176.336 101.917L175.641 99.5156ZM165.938 102.891L166.904 105.196L166.922 105.189L166.94 105.181L165.938 102.891ZM158.484 106.828L156.224 107.897L157.475 110.542L159.893 108.894L158.484 106.828ZM149.906 88.6875L148.546 86.5901L146.712 87.7798L147.646 89.7562L149.906 88.6875ZM161.297 82.5L162.331 84.7759L162.353 84.7663L162.374 84.7562L161.297 82.5ZM174.234 77.5781L174.934 79.9781L174.95 79.9735L174.966 79.9686L174.234 77.5781ZM188.156 74.3438L188.551 76.8124L188.571 76.8092L188.591 76.8057L188.156 74.3438ZM225 76.1719L224.269 78.5628L224.285 78.5674L224.3 78.5719L225 76.1719ZM252.984 101.625L250.652 102.525L250.656 102.536L252.984 101.625ZM256.781 124.969L259.281 124.974V124.969H256.781ZM256.641 197.812L254.141 197.808L254.136 200.312H256.641V197.812ZM272.812 197.812H275.312V195.312H272.812V197.812ZM272.812 222V224.5H275.312V222H272.812ZM230.484 222H227.984V224.5H230.484V222ZM215.297 199.5L216.331 201.776L216.36 201.763L216.388 201.75L215.297 199.5ZM223.875 194.438L225.328 196.472L225.352 196.455L225.375 196.438L223.875 194.438ZM230.484 188.391L232.376 190.025L232.98 189.325L232.984 188.401L230.484 188.391ZM230.625 155.484L233.125 155.495L233.136 152.984H230.625V155.484ZM186.328 157.172L185.684 154.756L185.67 154.76L186.328 157.172ZM175.5 162.094L174.071 160.043L174.056 160.053L174.041 160.064L175.5 162.094ZM168.047 191.203L165.796 192.292L165.804 192.307L165.811 192.321L168.047 191.203ZM173.953 198.375L172.418 200.348L172.459 200.38L172.5 200.409L173.953 198.375ZM183.234 202.734L182.539 205.136L182.569 205.144L182.598 205.152L183.234 202.734ZM228.78 206.671C223.429 211.659 217.494 215.736 210.97 218.908L213.155 223.405C220.131 220.014 226.477 215.653 232.189 210.329L228.78 206.671ZM210.957 218.914C204.693 222.002 197.487 223.578 189.281 223.578V228.578C198.138 228.578 206.12 226.873 213.168 223.399L210.957 218.914ZM189.281 223.578C182.423 223.578 176.161 222.496 170.472 220.362L168.716 225.044C175.026 227.41 181.89 228.578 189.281 228.578V223.578ZM170.484 220.367C164.835 218.215 159.994 215.319 155.929 211.696L152.602 215.429C157.162 219.493 162.54 222.691 168.704 225.039L170.484 220.367ZM155.951 211.716C151.873 207.993 148.696 203.708 146.401 198.853L141.88 200.99C144.46 206.448 148.033 211.257 152.58 215.409L155.951 211.716ZM146.417 198.887C144.224 194.065 143.125 188.934 143.125 183.469H138.125C138.125 189.629 139.369 195.467 141.865 200.956L146.417 198.887ZM143.125 183.469C143.125 177.518 143.982 172.338 145.64 167.888L140.954 166.143C139.049 171.256 138.125 177.045 138.125 183.469H143.125ZM145.624 167.928C147.408 163.38 149.707 159.506 152.5 156.276L148.718 153.005C145.512 156.712 142.936 161.089 140.969 166.103L145.624 167.928ZM152.497 156.28C155.413 152.922 158.763 150.146 162.553 147.943L160.04 143.62C155.769 146.104 151.994 149.234 148.722 153.001L152.497 156.28ZM162.569 147.934C166.538 145.588 170.633 143.744 174.854 142.397L173.334 137.634C168.742 139.099 164.306 141.099 160.025 143.629L162.569 147.934ZM174.884 142.387C179.23 140.939 183.614 139.945 188.038 139.403L187.431 134.44C182.667 135.024 177.957 136.093 173.303 137.644L174.884 142.387ZM188.081 139.398C192.667 138.756 197.004 138.438 201.094 138.438V133.438C196.746 133.438 192.176 133.776 187.388 134.446L188.081 139.398ZM201.094 138.438C207.794 138.438 213.375 138.67 217.856 139.128L218.363 134.154C213.656 133.673 207.894 133.438 201.094 133.438V138.438ZM217.906 139.132C222.422 139.501 226.496 140.052 230.135 140.78L231.115 135.877C227.254 135.104 222.984 134.53 218.313 134.149L217.906 139.132ZM233.125 138.358L233.265 126.404L228.266 126.346L228.125 138.299L233.125 138.358ZM233.266 126.375C233.266 120.985 232.483 116.202 230.837 112.087L226.194 113.944C227.549 117.33 228.266 121.453 228.266 126.375H233.266ZM230.845 112.107C229.221 107.946 226.903 104.464 223.856 101.732L220.519 105.455C222.91 107.599 224.81 110.398 226.187 113.924L230.845 112.107ZM223.891 101.764C220.879 98.9593 217.266 96.9066 213.099 95.5857L211.588 100.352C215.109 101.468 218.059 103.166 220.484 105.423L223.891 101.764ZM213.116 95.5912C209.075 94.2777 204.589 93.6406 199.688 93.6406V98.6406C204.161 98.6406 208.113 99.2223 211.571 100.346L213.116 95.5912ZM199.688 93.6406C195.157 93.6406 190.804 93.978 186.63 94.6575L187.433 99.5925C191.321 98.9595 195.405 98.6406 199.688 98.6406V93.6406ZM186.686 94.649C182.548 95.2264 178.633 96.0468 174.945 97.1142L176.336 101.917C179.773 100.922 183.452 100.149 187.377 99.601L186.686 94.649ZM174.988 97.1022C171.412 98.0689 168.059 99.2336 164.935 100.6L166.94 105.181C169.816 103.923 172.932 102.837 176.293 101.929L174.988 97.1022ZM164.971 100.585C161.948 101.853 159.308 103.241 157.076 104.763L159.893 108.894C161.786 107.603 164.115 106.366 166.904 105.196L164.971 100.585ZM160.744 105.759L152.166 87.6188L147.646 89.7562L156.224 107.897L160.744 105.759ZM151.267 90.7849C154.622 88.6085 158.309 86.6044 162.331 84.7759L160.262 80.2241C156.035 82.1456 152.128 84.2665 148.546 86.5901L151.267 90.7849ZM162.374 84.7562C166.374 82.8469 170.56 81.2539 174.934 79.9781L173.534 75.1781C168.908 76.5274 164.47 78.2156 160.22 80.2438L162.374 84.7562ZM174.966 79.9686C179.451 78.5957 183.979 77.5439 188.551 76.8124L187.761 71.8751C182.958 72.6436 178.205 73.748 173.503 75.1876L174.966 79.9686ZM188.591 76.8057C193.237 75.9858 197.779 75.5781 202.219 75.5781V70.5781C197.471 70.5781 192.638 71.0142 187.722 71.8818L188.591 76.8057ZM202.219 75.5781C210.455 75.5781 217.797 76.5851 224.269 78.5628L225.731 73.781C218.703 71.6336 210.857 70.5781 202.219 70.5781V75.5781ZM224.3 78.5719C230.731 80.4476 236.106 83.3716 240.484 87.3114L243.829 83.5949C238.831 79.0972 232.769 75.8336 225.7 73.7719L224.3 78.5719ZM240.484 87.3114C244.847 91.2379 248.246 96.2863 250.652 102.525L255.317 100.725C252.661 93.8387 248.841 88.1059 243.829 83.5949L240.484 87.3114ZM250.656 102.536C253.045 108.64 254.281 116.095 254.281 124.969H259.281C259.281 115.655 257.986 107.547 255.312 100.714L250.656 102.536ZM254.281 124.964L254.141 197.808L259.141 197.817L259.281 124.974L254.281 124.964ZM256.641 200.312H272.812V195.312H256.641V200.312ZM270.312 197.812V222H275.312V197.812H270.312ZM272.812 219.5H230.484V224.5H272.812V219.5ZM232.984 222V208.5H227.984V222H232.984ZM195.047 206.641C198.72 206.641 202.387 206.194 206.044 205.304L204.862 200.446C201.581 201.244 198.311 201.641 195.047 201.641V206.641ZM206.044 205.304C209.657 204.425 213.088 203.25 216.331 201.776L214.262 197.224C211.318 198.562 208.186 199.637 204.862 200.446L206.044 205.304ZM216.388 201.75C219.6 200.192 222.581 198.434 225.328 196.472L222.422 192.403C219.919 194.191 217.182 195.808 214.206 197.25L216.388 201.75ZM225.375 196.438C228.115 194.382 230.457 192.247 232.376 190.025L228.592 186.757C226.949 188.659 224.885 190.555 222.375 192.438L225.375 196.438ZM232.984 188.401L233.125 155.495L228.125 155.474L227.984 188.38L232.984 188.401ZM230.625 152.984H200.25V157.984H230.625V152.984ZM200.25 152.984C195.004 152.984 190.143 153.567 185.684 154.756L186.972 159.587C190.951 158.527 195.371 157.984 200.25 157.984V152.984ZM185.67 154.76C181.306 155.95 177.428 157.703 174.071 160.043L176.929 164.145C179.759 162.172 183.1 160.643 186.986 159.584L185.67 154.76ZM174.041 160.064C170.736 162.439 168.132 165.403 166.259 168.94L170.678 171.279C172.181 168.441 174.264 166.061 176.959 164.124L174.041 160.064ZM166.259 168.94C164.355 172.536 163.438 176.604 163.438 181.078H168.438C168.438 177.302 169.207 174.057 170.678 171.279L166.259 168.94ZM163.438 181.078C163.438 185.228 164.198 188.988 165.796 192.292L170.297 190.114C169.084 187.606 168.438 184.616 168.438 181.078H163.438ZM165.811 192.321C167.387 195.474 169.598 198.155 172.418 200.348L175.488 196.402C173.245 194.657 171.519 192.557 170.283 190.085L165.811 192.321ZM172.5 200.409C175.387 202.471 178.745 204.037 182.539 205.136L183.93 200.333C180.599 199.369 177.77 198.029 175.406 196.341L172.5 200.409ZM182.598 205.152C186.4 206.153 190.555 206.641 195.047 206.641V201.641C190.914 201.641 187.194 201.191 183.871 200.317L182.598 205.152ZM386.438 115.406H383.938V117.906H386.438V115.406ZM383.625 105.422L381.513 106.76L381.539 106.801L381.567 106.841L383.625 105.422ZM376.594 98.6719L375.287 100.803L375.313 100.819L375.338 100.834L376.594 98.6719ZM366.891 94.875L366.314 97.3077L366.345 97.3149L366.376 97.3214L366.891 94.875ZM346.078 94.875L345.438 92.4582L345.429 92.4606L345.42 92.4631L346.078 94.875ZM332.719 104.438L330.537 103.216L330.529 103.231L330.521 103.247L332.719 104.438ZM335.25 123.703L333.482 125.471L333.511 125.499L333.54 125.527L335.25 123.703ZM350.156 131.578L350.986 129.22L350.985 129.219L350.156 131.578ZM378.141 141.422L377.311 143.78L377.328 143.786L377.345 143.792L378.141 141.422ZM408.797 200.625L406.545 199.538L406.541 199.546L406.538 199.555L408.797 200.625ZM397.828 214.406L399.39 216.358L399.395 216.355L397.828 214.406ZM380.812 223.125L380.073 220.737L380.057 220.742L380.042 220.747L380.812 223.125ZM314.438 206.391L316.543 205.042L315.805 203.891H314.438V206.391ZM299.812 206.391H297.312V208.891H299.812V206.391ZM299.812 182.203V179.703H297.312V182.203H299.812ZM328.922 182.203H331.422V179.703H328.922V182.203ZM331.453 192.609L329.291 193.865L329.315 193.906L329.341 193.947L331.453 192.609ZM338.344 199.5L337.006 201.612L337.022 201.622L337.037 201.632L338.344 199.5ZM348.047 203.438L347.471 205.87L347.478 205.872L347.485 205.873L348.047 203.438ZM369.703 203.438L370.309 205.863L370.341 205.855L370.372 205.846L369.703 203.438ZM378.562 199.5L379.949 201.58L379.958 201.574L379.966 201.569L378.562 199.5ZM382.359 172.922L380.514 174.609L380.527 174.623L380.54 174.637L382.359 172.922ZM366.891 164.062L366.015 166.404L366.031 166.41L366.046 166.415L366.891 164.062ZM339.047 153.656L339.922 151.314L339.903 151.307L339.884 151.301L339.047 153.656ZM313.734 138.328L311.844 139.964L311.857 139.979L311.871 139.994L313.734 138.328ZM308.953 97.6875L306.67 96.6684L306.663 96.6855L306.655 96.7027L308.953 97.6875ZM318.938 84.1875L320.578 86.074L320.581 86.0714L318.938 84.1875ZM401.625 91.2188L399.673 92.7805L400.423 93.7188H401.625V91.2188ZM415.266 91.2188H417.766V88.7188H415.266V91.2188ZM415.266 115.406V117.906H417.766V115.406H415.266ZM388.938 115.406C388.938 111.061 387.898 107.214 385.683 104.003L381.567 106.841C383.102 109.068 383.938 111.876 383.938 115.406H388.938ZM385.737 104.084C383.739 100.929 381.1 98.3973 377.849 96.5099L375.338 100.834C377.9 102.321 379.949 104.29 381.513 106.76L385.737 104.084ZM377.9 96.5404C374.734 94.5998 371.229 93.2335 367.406 92.4286L366.376 97.3214C369.677 98.0165 372.641 99.1815 375.287 100.803L377.9 96.5404ZM367.467 92.4423C363.731 91.5576 360.069 91.1094 356.484 91.1094V96.1094C359.65 96.1094 362.925 96.5049 366.314 97.3077L367.467 92.4423ZM356.484 91.1094C352.547 91.1094 348.861 91.5523 345.438 92.4582L346.718 97.2918C349.67 96.5102 352.921 96.1094 356.484 96.1094V91.1094ZM345.42 92.4631C342.09 93.3715 339.142 94.7033 336.617 96.4912L339.508 100.571C341.483 99.1717 343.879 98.066 346.736 97.2869L345.42 92.4631ZM336.617 96.4912C334.073 98.2938 332.036 100.539 330.537 103.216L334.9 105.659C336.026 103.648 337.552 101.956 339.508 100.571L336.617 96.4912ZM330.521 103.247C329.085 105.898 328.391 108.845 328.391 112.031H333.391C333.391 109.592 333.915 107.477 334.917 105.628L330.521 103.247ZM328.391 112.031C328.391 117.437 330.021 122.01 333.482 125.471L337.018 121.935C334.666 119.584 333.391 116.376 333.391 112.031H328.391ZM333.54 125.527C336.92 128.696 342.28 131.461 349.328 133.937L350.985 129.219C344.157 126.82 339.58 124.335 336.96 121.879L333.54 125.527ZM349.327 133.936L377.311 143.78L378.97 139.064L350.986 129.22L349.327 133.936ZM377.345 143.792C389.074 147.732 397.354 153.001 402.483 159.434L406.392 156.316C400.459 148.874 391.207 143.174 378.937 139.052L377.345 143.792ZM402.483 159.434C407.629 165.888 410.234 173.622 410.234 182.766H415.234C415.234 172.596 412.308 163.737 406.392 156.316L402.483 159.434ZM410.234 182.766C410.234 188.885 408.995 194.463 406.545 199.538L411.048 201.712C413.848 195.912 415.234 189.583 415.234 182.766H410.234ZM406.538 199.555C404.174 204.544 400.76 208.842 396.262 212.458L399.395 216.355C404.459 212.283 408.357 207.393 411.056 201.695L406.538 199.555ZM396.266 212.454C391.859 215.98 386.477 218.752 380.073 220.737L381.552 225.513C388.46 223.373 394.422 220.333 399.39 216.358L396.266 212.454ZM380.042 220.747C373.672 222.81 366.531 223.859 358.594 223.859V228.859C366.969 228.859 374.641 227.752 381.583 225.503L380.042 220.747ZM358.594 223.859C347.492 223.859 338.688 222.066 332.032 218.651L329.749 223.099C337.343 226.996 347.008 228.859 358.594 228.859V223.859ZM332.032 218.651C325.25 215.171 320.12 210.626 316.543 205.042L312.332 207.739C316.443 214.155 322.281 219.267 329.749 223.099L332.032 218.651ZM314.438 203.891H299.812V208.891H314.438V203.891ZM302.312 206.391V182.203H297.312V206.391H302.312ZM299.812 184.703H328.922V179.703H299.812V184.703ZM326.422 182.203C326.422 186.587 327.342 190.508 329.291 193.865L333.615 191.354C332.189 188.899 331.422 185.882 331.422 182.203H326.422ZM329.341 193.947C331.32 197.072 333.881 199.633 337.006 201.612L339.681 197.388C337.181 195.804 335.149 193.772 333.565 191.272L329.341 193.947ZM337.037 201.632C340.186 203.561 343.669 204.97 347.471 205.87L348.623 201.005C345.299 200.218 342.314 199.001 339.65 197.368L337.037 201.632ZM347.485 205.873C351.325 206.76 355.217 207.203 359.156 207.203V202.203C355.596 202.203 352.081 201.803 348.609 201.002L347.485 205.873ZM359.156 207.203C363.006 207.203 366.726 206.759 370.309 205.863L369.097 201.012C365.93 201.804 362.619 202.203 359.156 202.203V207.203ZM370.372 205.846C373.964 204.848 377.167 203.435 379.949 201.58L377.176 197.42C374.895 198.94 372.192 200.152 369.034 201.029L370.372 205.846ZM379.966 201.569C382.852 199.61 385.175 197.252 386.879 194.482L382.621 191.862C381.325 193.967 379.523 195.827 377.159 197.431L379.966 201.569ZM386.879 194.482C388.641 191.619 389.5 188.393 389.5 184.875H384.5C384.5 187.545 383.859 189.85 382.621 191.862L386.879 194.482ZM389.5 184.875C389.5 179.578 387.728 174.972 384.178 171.207L380.54 174.637C383.178 177.434 384.5 180.797 384.5 184.875H389.5ZM384.204 171.235C380.796 167.506 375.184 164.383 367.735 161.71L366.046 166.415C373.223 168.992 377.923 171.775 380.514 174.609L384.204 171.235ZM367.766 161.721L339.922 151.314L338.172 155.998L366.015 166.404L367.766 161.721ZM339.884 151.301C328.769 147.351 320.753 142.428 315.598 136.662L311.871 139.994C317.778 146.603 326.637 151.899 338.21 156.012L339.884 151.301ZM315.625 136.692C310.631 130.924 308.078 123.7 308.078 114.844H303.078C303.078 124.737 305.963 133.17 311.844 139.964L315.625 136.692ZM308.078 114.844C308.078 108.966 309.145 103.586 311.251 98.6723L306.655 96.7027C304.261 102.289 303.078 108.346 303.078 114.844H308.078ZM311.236 98.7066C313.432 93.787 316.542 89.5836 320.578 86.074L317.297 82.301C312.708 86.2914 309.162 91.088 306.67 96.6684L311.236 98.7066ZM320.581 86.0714C324.713 82.467 329.764 79.6175 335.78 77.5521L334.157 72.8229C327.611 75.07 321.975 78.2205 317.294 82.3036L320.581 86.0714ZM335.78 77.5521C341.751 75.5023 348.641 74.4531 356.484 74.4531V69.4531C348.203 69.4531 340.749 70.5602 334.157 72.8229L335.78 77.5521ZM356.484 74.4531C366.676 74.4531 375.047 75.8787 381.686 78.6229L383.596 74.0021C376.172 70.9338 367.105 69.4531 356.484 69.4531V74.4531ZM381.686 78.6229C388.261 81.3406 394.263 86.0184 399.673 92.7805L403.577 89.657C397.737 82.3566 391.083 77.0969 383.596 74.0021L381.686 78.6229ZM401.625 93.7188H415.266V88.7188H401.625V93.7188ZM412.766 91.2188V115.406H417.766V91.2188H412.766ZM415.266 112.906H386.438V117.906H415.266V112.906ZM444.094 3.1875V0.6875H441.594V3.1875H444.094ZM490.219 3.1875H492.719V0.6875H490.219V3.1875ZM490.219 92.3438H487.719V94.8438H490.219V92.3438ZM491.062 92.3438V94.8438H492.098L492.83 94.1115L491.062 92.3438ZM500.062 85.0312L501.449 87.1114L501.456 87.1071L501.462 87.1027L500.062 85.0312ZM582.469 103.734L580.1 104.535L580.107 104.554L580.114 104.573L582.469 103.734ZM586.125 197.812H583.625V200.312H586.125V197.812ZM608.062 197.812H610.562V195.312H608.062V197.812ZM608.062 222V224.5H610.562V222H608.062ZM538.875 222H536.375V224.5H538.875V222ZM538.875 197.812V195.312H536.375V197.812H538.875ZM558.844 197.812V200.312H561.344V197.812H558.844ZM550.266 105.984L548.469 107.723L548.483 107.738L548.498 107.752L550.266 105.984ZM507.656 101.625L508.691 103.901L508.705 103.894L508.719 103.888L507.656 101.625ZM490.219 112.312L488.665 110.354L487.719 111.104V112.312H490.219ZM490.219 197.812H487.719V200.312H490.219V197.812ZM511.312 197.812H513.812V195.312H511.312V197.812ZM511.312 222V224.5H513.812V222H511.312ZM442.125 222H439.625V224.5H442.125V222ZM442.125 197.812V195.312H439.625V197.812H442.125ZM464.062 197.812V200.312H466.562V197.812H464.062ZM464.062 27.375H466.562V24.875H464.062V27.375ZM444.094 27.375H441.594V29.875H444.094V27.375ZM444.094 5.6875H490.219V0.6875H444.094V5.6875ZM487.719 3.1875V92.3438H492.719V3.1875H487.719ZM490.219 94.8438H491.062V89.8438H490.219V94.8438ZM492.83 94.1115C495.329 91.6131 498.199 89.2784 501.449 87.1114L498.676 82.9511C495.176 85.2841 492.046 87.8244 489.295 90.576L492.83 94.1115ZM501.462 87.1027C504.815 84.8375 508.299 82.892 511.917 81.2642L509.865 76.7046C505.982 78.4518 502.248 80.5375 498.663 82.9598L501.462 87.1027ZM511.917 81.2642C515.518 79.6436 519.254 78.3829 523.129 77.4819L521.996 72.6119C517.808 73.5858 513.763 74.9501 509.865 76.7046L511.917 81.2642ZM523.129 77.4819C526.963 76.5903 530.991 76.1406 535.219 76.1406V71.1406C530.634 71.1406 526.225 71.6285 521.996 72.6119L523.129 77.4819ZM535.219 76.1406C542.77 76.1406 549.521 77.1869 555.501 79.2396L557.124 74.5104C550.541 72.2506 543.23 71.1406 535.219 71.1406V76.1406ZM555.501 79.2396C561.446 81.2805 566.456 84.3669 570.576 88.4865L574.112 84.951C569.419 80.2581 563.741 76.782 557.124 74.5104L555.501 79.2396ZM570.576 88.4865C574.666 92.577 577.858 97.898 580.1 104.535L584.837 102.934C582.392 95.6958 578.834 89.673 574.112 84.951L570.576 88.4865ZM580.114 104.573C582.432 111.082 583.625 118.895 583.625 128.062H588.625C588.625 118.48 587.381 110.074 584.824 102.896L580.114 104.573ZM583.625 128.062V197.812H588.625V128.062H583.625ZM586.125 200.312H608.062V195.312H586.125V200.312ZM605.562 197.812V222H610.562V197.812H605.562ZM608.062 219.5H538.875V224.5H608.062V219.5ZM541.375 222V197.812H536.375V222H541.375ZM538.875 200.312H558.844V195.312H538.875V200.312ZM561.344 197.812V131.297H556.344V197.812H561.344ZM561.344 131.297C561.344 119.734 558.376 110.559 552.033 104.217L548.498 107.752C553.593 112.847 556.344 120.547 556.344 131.297H561.344ZM552.062 104.246C545.833 97.8089 536.989 94.7656 525.938 94.7656V99.7656C536.073 99.7656 543.448 102.535 548.469 107.723L552.062 104.246ZM525.938 94.7656C519.522 94.7656 513.067 96.3215 506.593 99.3622L508.719 103.888C514.62 101.116 520.353 99.7656 525.938 99.7656V94.7656ZM506.622 99.3491C500.245 102.248 494.259 105.917 488.665 110.354L491.772 114.271C497.054 110.083 502.692 106.627 508.691 103.901L506.622 99.3491ZM487.719 112.312V197.812H492.719V112.312H487.719ZM490.219 200.312H511.312V195.312H490.219V200.312ZM508.812 197.812V222H513.812V197.812H508.812ZM511.312 219.5H442.125V224.5H511.312V219.5ZM444.625 222V197.812H439.625V222H444.625ZM442.125 200.312H464.062V195.312H442.125V200.312ZM466.562 197.812V27.375H461.562V197.812H466.562ZM464.062 24.875H444.094V29.875H464.062V24.875ZM446.594 27.375V3.1875H441.594V27.375H446.594ZM631.406 76.3125V73.8125H628.906V76.3125H631.406ZM678.938 76.3125H681.438V73.8125H678.938V76.3125ZM678.938 197.812H676.438V200.312H678.938V197.812ZM700.875 197.812H703.375V195.312H700.875V197.812ZM700.875 222V224.5H703.375V222H700.875ZM631.688 222H629.188V224.5H631.688V222ZM631.688 197.812V195.312H629.188V197.812H631.688ZM652.5 197.812V200.312H655V197.812H652.5ZM652.5 100.5H655V98H652.5V100.5ZM631.406 100.5H628.906V103H631.406V100.5ZM648.984 17.8125L646.712 16.7709L646.701 16.7932L646.692 16.8157L648.984 17.8125ZM658.828 8.10938L659.79 10.4171L659.83 10.4003L659.87 10.382L658.828 8.10938ZM672.891 8.10938L671.812 10.3647L671.87 10.3924L671.929 10.4171L672.891 8.10938ZM678.656 12.0469L676.839 13.7634L676.888 13.8154L676.94 13.8644L678.656 12.0469ZM682.594 17.8125L680.286 18.774L680.311 18.8333L680.338 18.8911L682.594 17.8125ZM682.594 31.875L680.321 30.8334L680.303 30.8731L680.286 30.9135L682.594 31.875ZM678.656 37.9219L676.841 36.2025L676.839 36.2053L678.656 37.9219ZM672.891 42L673.887 44.2927L673.91 44.2829L673.932 44.2727L672.891 42ZM658.828 42L657.786 44.2727L657.826 44.2909L657.867 44.3077L658.828 42ZM652.922 37.9219L651.059 39.5889L651.105 39.6406L651.154 39.6896L652.922 37.9219ZM648.984 31.875L646.677 32.8365L646.693 32.8769L646.712 32.9166L648.984 31.875ZM631.406 78.8125H678.938V73.8125H631.406V78.8125ZM676.438 76.3125V197.812H681.438V76.3125H676.438ZM678.938 200.312H700.875V195.312H678.938V200.312ZM698.375 197.812V222H703.375V197.812H698.375ZM700.875 219.5H631.688V224.5H700.875V219.5ZM634.188 222V197.812H629.188V222H634.188ZM631.688 200.312H652.5V195.312H631.688V200.312ZM655 197.812V100.5H650V197.812H655ZM652.5 98H631.406V103H652.5V98ZM633.906 100.5V76.3125H628.906V100.5H633.906ZM650.078 24.7031C650.078 22.5957 650.481 20.6394 651.277 18.8093L646.692 16.8157C645.612 19.2981 645.078 21.9355 645.078 24.7031H650.078ZM651.257 18.8541C652.177 16.8478 653.326 15.1786 654.69 13.8146L651.154 10.2791C649.331 12.1026 647.855 14.2772 646.712 16.7709L651.257 18.8541ZM654.69 13.8146C656.141 12.363 657.834 11.2317 659.79 10.4171L657.867 5.80168C655.322 6.86203 653.078 8.35571 651.154 10.2791L654.69 13.8146ZM659.87 10.382C661.785 9.50404 663.82 9.0625 666 9.0625V4.0625C663.118 4.0625 660.371 4.65221 657.786 5.83671L659.87 10.382ZM666 9.0625C668.072 9.0625 669.999 9.49779 671.812 10.3647L673.969 5.85404C671.469 4.65846 668.803 4.0625 666 4.0625V9.0625ZM671.929 10.4171C673.872 11.2266 675.498 12.3435 676.839 13.7634L680.474 10.3303C678.627 8.3752 676.409 6.86713 673.852 5.80168L671.929 10.4171ZM676.94 13.8644C678.36 15.2054 679.477 16.8311 680.286 18.774L684.901 16.851C683.836 14.2939 682.328 12.0758 680.373 10.2293L676.94 13.8644ZM680.338 18.8911C681.205 20.7038 681.641 22.6313 681.641 24.7031H686.641C686.641 21.9 686.045 19.2337 684.849 16.7339L680.338 18.8911ZM681.641 24.7031C681.641 26.8833 681.199 28.9177 680.321 30.8334L684.866 32.9166C686.051 30.3323 686.641 27.5855 686.641 24.7031H681.641ZM680.286 30.9135C679.466 32.8811 678.321 34.6403 676.841 36.2025L680.471 39.6412C682.366 37.6409 683.846 35.3689 684.901 32.8365L680.286 30.9135ZM676.839 36.2053C675.48 37.6442 673.827 38.8209 671.849 39.7273L673.932 44.2727C676.455 43.1166 678.645 41.5746 680.474 39.6384L676.839 36.2053ZM671.894 39.7073C670.064 40.503 668.107 40.9062 666 40.9062V45.9062C668.768 45.9062 671.405 45.372 673.887 44.2927L671.894 39.7073ZM666 40.9062C663.786 40.9062 661.723 40.498 659.79 39.6923L657.867 44.3077C660.433 45.377 663.152 45.9062 666 45.9062V40.9062ZM659.87 39.7273C657.88 38.8152 656.159 37.6237 654.69 36.1541L651.154 39.6896C653.059 41.595 655.277 43.1223 657.786 44.2727L659.87 39.7273ZM654.785 36.2549C653.364 34.667 652.188 32.8637 651.257 30.8334L646.712 32.9166C647.844 35.3863 649.292 37.6143 651.059 39.5889L654.785 36.2549ZM651.292 30.9135C650.486 28.9799 650.078 26.9173 650.078 24.7031H645.078C645.078 27.5515 645.607 30.2701 646.677 32.8365L651.292 30.9135ZM725.062 76.3125V73.8125H722.562V76.3125H725.062ZM771.469 76.3125H773.969V73.8125H771.469V76.3125ZM771.469 93.3281H768.969V95.8281H771.469V93.3281ZM771.75 93.3281V95.8281H772.671L773.372 95.2302L771.75 93.3281ZM781.734 85.7344L783.134 87.8058L783.14 87.8018L783.146 87.7976L781.734 85.7344ZM804.797 75.1875L804.203 72.759L804.191 72.7621L804.797 75.1875ZM845.016 79.5469L843.865 81.7663L843.876 81.7719L843.887 81.7774L845.016 79.5469ZM862.594 97.6875L860.358 98.8055L861.821 101.733L864.261 99.5506L862.594 97.6875ZM873.844 88.5469L875.328 90.5583L875.344 90.547L875.359 90.5355L873.844 88.5469ZM886.078 80.8125L884.96 78.5764L884.95 78.5814L884.94 78.5864L886.078 80.8125ZM961.453 103.734L959.075 104.506L959.081 104.525L959.088 104.544L961.453 103.734ZM964.969 197.812H962.469V200.312H964.969V197.812ZM985.219 197.812H987.719V195.312H985.219V197.812ZM985.219 222V224.5H987.719V222H985.219ZM917.156 222H914.656V224.5H917.156V222ZM917.156 197.812V195.312H914.656V197.812H917.156ZM937.688 197.812V200.312H940.188V197.812H937.688ZM929.25 105.984L927.453 107.723L927.461 107.73L927.468 107.737L929.25 105.984ZM868.781 113.156L867.031 111.371L866.281 112.106V113.156H868.781ZM868.781 197.812H866.281V200.312H868.781V197.812ZM888.891 197.812H891.391V195.312H888.891V197.812ZM888.891 222V224.5H891.391V222H888.891ZM820.969 222H818.469V224.5H820.969V222ZM820.969 197.812V195.312H818.469V197.812H820.969ZM841.5 197.812V200.312H844V197.812H841.5ZM832.922 105.984L831.125 107.723L831.14 107.738L831.154 107.752L832.922 105.984ZM772.594 112.453L771.057 110.482L770.094 111.232V112.453H772.594ZM772.594 197.812H770.094V200.312H772.594V197.812ZM793.125 197.812H795.625V195.312H793.125V197.812ZM793.125 222V224.5H795.625V222H793.125ZM725.062 222H722.562V224.5H725.062V222ZM725.062 197.812V195.312H722.562V197.812H725.062ZM745.312 197.812V200.312H747.812V197.812H745.312ZM745.312 100.5H747.812V98H745.312V100.5ZM725.062 100.5H722.562V103H725.062V100.5ZM725.062 78.8125H771.469V73.8125H725.062V78.8125ZM768.969 76.3125V93.3281H773.969V76.3125H768.969ZM771.469 95.8281H771.75V90.8281H771.469V95.8281ZM773.372 95.2302C776.489 92.572 779.743 90.0973 783.134 87.8058L780.335 83.6629C776.789 86.059 773.386 88.6468 770.128 91.426L773.372 95.2302ZM783.146 87.7976C786.596 85.4369 790.179 83.3965 793.895 81.6745L791.793 77.138C787.821 78.9785 783.997 81.1569 780.323 83.6711L783.146 87.7976ZM793.895 81.6745C797.595 79.9598 801.431 78.606 805.403 77.6129L804.191 72.7621C799.913 73.8315 795.78 75.2902 791.793 77.138L793.895 81.6745ZM805.391 77.616C809.408 76.6339 813.568 76.1406 817.875 76.1406V71.1406C813.182 71.1406 808.623 71.6786 804.203 72.759L805.391 77.616ZM817.875 76.1406C828.064 76.1406 836.699 78.0505 843.865 81.7663L846.166 77.3275C838.145 73.1683 828.686 71.1406 817.875 71.1406V76.1406ZM843.887 81.7774C850.961 85.3581 856.451 90.993 860.358 98.8055L864.83 96.5695C860.486 87.882 854.258 81.4231 846.145 77.3163L843.887 81.7774ZM864.261 99.5506C867.763 96.4166 871.452 93.4191 875.328 90.5583L872.359 86.5354C868.36 89.4871 864.549 92.5834 860.927 95.8244L864.261 99.5506ZM875.359 90.5355C879.183 87.6217 883.136 85.1241 887.216 83.0386L884.94 78.5864C880.583 80.8134 876.379 83.4721 872.329 86.5583L875.359 90.5355ZM887.196 83.0486C891.365 80.9641 895.716 79.2868 900.252 78.0168L898.904 73.202C894.065 74.5569 889.416 76.3484 884.96 78.5764L887.196 83.0486ZM900.252 78.0168C904.712 76.7681 909.359 76.1406 914.203 76.1406V71.1406C908.922 71.1406 903.82 71.8256 898.904 73.202L900.252 78.0168ZM914.203 76.1406C921.852 76.1406 928.649 77.1879 934.626 79.2396L936.249 74.5104C929.663 72.2496 922.304 71.1406 914.203 71.1406V76.1406ZM934.626 79.2396C940.571 81.2805 945.581 84.3669 949.701 88.4865L953.237 84.951C948.544 80.2581 942.866 76.782 936.249 74.5104L934.626 79.2396ZM949.701 88.4865C953.784 92.5695 956.926 97.8799 959.075 104.506L963.831 102.963C961.48 95.7138 957.966 89.6805 953.237 84.951L949.701 88.4865ZM959.088 104.544C961.32 111.063 962.469 118.886 962.469 128.062H967.469C967.469 118.489 966.273 110.093 963.818 102.924L959.088 104.544ZM962.469 128.062V197.812H967.469V128.062H962.469ZM964.969 200.312H985.219V195.312H964.969V200.312ZM982.719 197.812V222H987.719V197.812H982.719ZM985.219 219.5H917.156V224.5H985.219V219.5ZM919.656 222V197.812H914.656V222H919.656ZM917.156 200.312H937.688V195.312H917.156V200.312ZM940.188 197.812V131.297H935.188V197.812H940.188ZM940.188 131.297C940.188 119.745 937.272 110.575 931.032 104.231L927.468 107.737C932.478 112.831 935.188 120.536 935.188 131.297H940.188ZM931.047 104.246C924.817 97.8089 915.974 94.7656 904.922 94.7656V99.7656C915.058 99.7656 922.433 102.535 927.453 107.723L931.047 104.246ZM904.922 94.7656C898.232 94.7656 891.457 96.3649 884.617 99.4919L886.696 104.039C892.98 101.166 899.049 99.7656 904.922 99.7656V94.7656ZM884.617 99.4919C877.817 102.6 871.945 106.555 867.031 111.371L870.531 114.942C874.992 110.57 880.37 106.931 886.696 104.039L884.617 99.4919ZM866.281 113.156V197.812H871.281V113.156H866.281ZM868.781 200.312H888.891V195.312H868.781V200.312ZM886.391 197.812V222H891.391V197.812H886.391ZM888.891 219.5H820.969V224.5H888.891V219.5ZM823.469 222V197.812H818.469V222H823.469ZM820.969 200.312H841.5V195.312H820.969V200.312ZM844 197.812V131.297H839V197.812H844ZM844 131.297C844 119.734 841.032 110.559 834.69 104.217L831.154 107.752C836.249 112.847 839 120.547 839 131.297H844ZM834.718 104.246C828.489 97.8089 819.646 94.7656 808.594 94.7656V99.7656C818.729 99.7656 826.105 102.535 831.125 107.723L834.718 104.246ZM808.594 94.7656C802.09 94.7656 795.588 96.3189 789.109 99.3622L791.235 103.888C797.13 101.119 802.91 99.7656 808.594 99.7656V94.7656ZM789.109 99.3622C782.749 102.35 776.731 106.058 771.057 110.482L774.131 114.425C779.519 110.224 785.22 106.713 791.235 103.888L789.109 99.3622ZM770.094 112.453V197.812H775.094V112.453H770.094ZM772.594 200.312H793.125V195.312H772.594V200.312ZM790.625 197.812V222H795.625V197.812H790.625ZM793.125 219.5H725.062V224.5H793.125V219.5ZM727.562 222V197.812H722.562V222H727.562ZM725.062 200.312H745.312V195.312H725.062V200.312ZM747.812 197.812V100.5H742.812V197.812H747.812ZM745.312 98H725.062V103H745.312V98ZM727.562 100.5V76.3125H722.562V100.5H727.562ZM1012.22 76.3125V73.8125H1009.72V76.3125H1012.22ZM1059.75 76.3125H1062.25V73.8125H1059.75V76.3125ZM1059.75 197.812H1057.25V200.312H1059.75V197.812ZM1081.69 197.812H1084.19V195.312H1081.69V197.812ZM1081.69 222V224.5H1084.19V222H1081.69ZM1012.5 222H1010V224.5H1012.5V222ZM1012.5 197.812V195.312H1010V197.812H1012.5ZM1033.31 197.812V200.312H1035.81V197.812H1033.31ZM1033.31 100.5H1035.81V98H1033.31V100.5ZM1012.22 100.5H1009.72V103H1012.22V100.5ZM1029.8 17.8125L1027.52 16.7709L1027.51 16.7932L1027.5 16.8157L1029.8 17.8125ZM1039.64 8.10938L1040.6 10.4171L1040.64 10.4003L1040.68 10.382L1039.64 8.10938ZM1053.7 8.10938L1052.62 10.3647L1052.68 10.3924L1052.74 10.4171L1053.7 8.10938ZM1059.47 12.0469L1057.65 13.7634L1057.7 13.8154L1057.75 13.8644L1059.47 12.0469ZM1063.41 17.8125L1061.1 18.774L1061.12 18.8333L1061.15 18.8911L1063.41 17.8125ZM1063.41 31.875L1061.13 30.8334L1061.12 30.8731L1061.1 30.9135L1063.41 31.875ZM1059.47 37.9219L1057.65 36.2025L1057.65 36.2053L1059.47 37.9219ZM1053.7 42L1054.7 44.2927L1054.72 44.2829L1054.74 44.2727L1053.7 42ZM1039.64 42L1038.6 44.2727L1038.64 44.2909L1038.68 44.3077L1039.64 42ZM1033.73 37.9219L1031.87 39.5889L1031.92 39.6406L1031.97 39.6896L1033.73 37.9219ZM1029.8 31.875L1027.49 32.8365L1027.51 32.8769L1027.52 32.9166L1029.8 31.875ZM1012.22 78.8125H1059.75V73.8125H1012.22V78.8125ZM1057.25 76.3125V197.812H1062.25V76.3125H1057.25ZM1059.75 200.312H1081.69V195.312H1059.75V200.312ZM1079.19 197.812V222H1084.19V197.812H1079.19ZM1081.69 219.5H1012.5V224.5H1081.69V219.5ZM1015 222V197.812H1010V222H1015ZM1012.5 200.312H1033.31V195.312H1012.5V200.312ZM1035.81 197.812V100.5H1030.81V197.812H1035.81ZM1033.31 98H1012.22V103H1033.31V98ZM1014.72 100.5V76.3125H1009.72V100.5H1014.72ZM1030.89 24.7031C1030.89 22.5957 1031.29 20.6394 1032.09 18.8093L1027.5 16.8157C1026.42 19.2981 1025.89 21.9355 1025.89 24.7031H1030.89ZM1032.07 18.8541C1032.99 16.8478 1034.14 15.1786 1035.5 13.8146L1031.97 10.2791C1030.14 12.1026 1028.67 14.2772 1027.52 16.7709L1032.07 18.8541ZM1035.5 13.8146C1036.95 12.363 1038.65 11.2317 1040.6 10.4171L1038.68 5.80168C1036.13 6.86203 1033.89 8.35571 1031.97 10.2791L1035.5 13.8146ZM1040.68 10.382C1042.6 9.50404 1044.63 9.0625 1046.81 9.0625V4.0625C1043.93 4.0625 1041.18 4.65221 1038.6 5.83671L1040.68 10.382ZM1046.81 9.0625C1048.88 9.0625 1050.81 9.49779 1052.62 10.3647L1054.78 5.85404C1052.28 4.65846 1049.62 4.0625 1046.81 4.0625V9.0625ZM1052.74 10.4171C1054.68 11.2266 1056.31 12.3435 1057.65 13.7634L1061.29 10.3303C1059.44 8.3752 1057.22 6.86713 1054.66 5.80168L1052.74 10.4171ZM1057.75 13.8644C1059.17 15.2054 1060.29 16.8311 1061.1 18.774L1065.71 16.851C1064.65 14.2939 1063.14 12.0758 1061.19 10.2293L1057.75 13.8644ZM1061.15 18.8911C1062.02 20.7038 1062.45 22.6313 1062.45 24.7031H1067.45C1067.45 21.9 1066.86 19.2337 1065.66 16.7339L1061.15 18.8911ZM1062.45 24.7031C1062.45 26.8833 1062.01 28.9177 1061.13 30.8334L1065.68 32.9166C1066.86 30.3323 1067.45 27.5855 1067.45 24.7031H1062.45ZM1061.1 30.9135C1060.28 32.8811 1059.13 34.6403 1057.65 36.2025L1061.28 39.6412C1063.18 37.6409 1064.66 35.3689 1065.71 32.8365L1061.1 30.9135ZM1057.65 36.2053C1056.29 37.6442 1054.64 38.8209 1052.66 39.7273L1054.74 44.2727C1057.27 43.1166 1059.46 41.5746 1061.29 39.6384L1057.65 36.2053ZM1052.71 39.7073C1050.88 40.503 1048.92 40.9062 1046.81 40.9062V45.9062C1049.58 45.9062 1052.22 45.372 1054.7 44.2927L1052.71 39.7073ZM1046.81 40.9062C1044.6 40.9062 1042.54 40.498 1040.6 39.6923L1038.68 44.3077C1041.25 45.377 1043.96 45.9062 1046.81 45.9062V40.9062ZM1040.68 39.7273C1038.69 38.8152 1036.97 37.6237 1035.5 36.1541L1031.97 39.6896C1033.87 41.595 1036.09 43.1223 1038.6 44.2727L1040.68 39.7273ZM1035.6 36.2549C1034.18 34.667 1033 32.8637 1032.07 30.8334L1027.52 32.9166C1028.66 35.3863 1030.1 37.6143 1031.87 39.5889L1035.6 36.2549ZM1032.1 30.9135C1031.3 28.9799 1030.89 26.9173 1030.89 24.7031H1025.89C1025.89 27.5515 1026.42 30.2701 1027.49 32.8365L1032.1 30.9135Z" fill="#11cbd7"/>
</svg>
