<svg width="490" height="113" viewBox="0 0 490 113" fill="none" xmlns="http://www.w3.org/2000/svg">
<path d="M45.1328 81.6641L44.2328 82.8641L44.2448 82.873L44.2569 82.8818L45.1328 81.6641ZM31.2812 76.6016L30.967 78.0683L30.9691 78.0687L31.2812 76.6016ZM15.6016 71.5391L14.9177 72.8741L14.9243 72.8775L15.6016 71.5391ZM7.02344 64.5078L5.77867 65.3448L5.7836 65.3521L5.78862 65.3594L7.02344 64.5078ZM12.1562 38.9844L11.2092 37.8211L11.2041 37.8253L12.1562 38.9844ZM53.3594 39.1953L52.3991 40.3477L52.4041 40.3518L53.3594 39.1953ZM61.4453 56.2812V57.7812H62.9453V56.2812H61.4453ZM48.3672 56.2812H46.8672V57.7812H48.3672V56.2812ZM43.7969 47.0703L42.8192 48.208L42.828 48.2154L43.7969 47.0703ZM34.4453 66.0547L34.1165 67.5182L34.1188 67.5187L34.4453 66.0547ZM59.1953 78.5703L57.9504 79.4071L57.9583 79.4189L57.9665 79.4305L59.1953 78.5703ZM53.9922 105.289L54.8922 106.489L54.8988 106.484L53.9922 105.289ZM5.61719 99.1719L4.37374 100.011L4.37957 100.019L4.38552 100.028L5.61719 99.1719ZM1.67969 86.5859V85.0859H0.179688V86.5859H1.67969ZM14.6875 86.5859L16.1853 86.5054L16.109 85.0859H14.6875V86.5859ZM19.8906 96.9922L18.9557 98.1651L18.965 98.1726L18.9744 98.1799L19.8906 96.9922ZM44.6406 97.8359L45.4727 99.084L45.4772 99.081L44.6406 97.8359ZM50.6406 89.8203C50.6406 85.8606 49.1027 82.6719 46.0087 80.4464L44.2569 82.8818C46.5066 84.5 47.6406 86.7488 47.6406 89.8203H50.6406ZM46.0328 80.4641C43.1305 78.2873 38.237 76.5479 31.5934 75.1344L30.9691 78.0687C37.5442 79.4677 41.8852 81.1033 44.2328 82.8641L46.0328 80.4641ZM31.5955 75.1349C25.0991 73.7428 20.0103 72.0889 16.2788 70.2007L14.9243 72.8775C18.9741 74.9267 24.3384 76.6479 30.967 78.0683L31.5955 75.1349ZM16.2854 70.204C12.5967 68.3147 9.9557 66.1175 8.25826 63.6562L5.78862 65.3594C7.84117 68.3356 10.9189 70.8259 14.9177 72.8741L16.2854 70.204ZM8.2682 63.6708C6.62963 61.234 5.78125 58.301 5.78125 54.8047H2.78125C2.78125 58.8084 3.761 62.3442 5.77867 65.3448L8.2682 63.6708ZM5.78125 54.8047C5.78125 49.0631 8.16977 44.2002 13.1084 40.1435L11.2041 37.8253C5.64273 42.3936 2.78125 48.0775 2.78125 54.8047H5.78125ZM13.1033 40.1476C18.0816 36.0944 24.4761 34.0156 32.4062 34.0156V31.0156C23.9301 31.0156 16.8246 33.2493 11.2092 37.8211L13.1033 40.1476ZM32.4062 34.0156C40.7672 34.0156 47.3849 36.1691 52.3991 40.3476L54.3197 38.043C48.6464 33.3153 41.2953 31.0156 32.4062 31.0156V34.0156ZM52.4041 40.3518C57.4529 44.5225 59.9453 49.7952 59.9453 56.2812H62.9453C62.9453 48.8923 60.0471 42.7743 54.3147 38.0389L52.4041 40.3518ZM61.4453 54.7812H48.3672V57.7812H61.4453V54.7812ZM49.8672 56.2812C49.8672 52.2212 48.1039 48.7498 44.7658 45.9252L42.828 48.2154C45.5836 50.5471 46.8672 53.2163 46.8672 56.2812H49.8672ZM44.7745 45.9327C41.4594 43.0837 37.2975 41.7031 32.4062 41.7031V44.7031C36.7025 44.7031 40.1344 45.9006 42.8192 48.2079L44.7745 45.9327ZM32.4062 41.7031C27.4709 41.7031 23.4022 42.7768 20.3803 45.1095L22.2135 47.4843C24.5353 45.692 27.8729 44.7031 32.4062 44.7031V41.7031ZM20.3803 45.1095C17.3466 47.4513 15.7891 50.5822 15.7891 54.3828H18.7891C18.7891 51.5272 19.9034 49.2675 22.2135 47.4843L20.3803 45.1095ZM15.7891 54.3828C15.7891 57.9951 17.2593 60.8568 20.2057 62.7469L21.8256 60.2218C19.8032 58.9245 18.7891 57.0518 18.7891 54.3828H15.7891ZM20.2057 62.7469C22.9309 64.4952 27.6366 66.0626 34.1165 67.5182L34.7741 64.5912C28.3166 63.1406 24.0691 61.6611 21.8256 60.2218L20.2057 62.7469ZM34.1188 67.5187C40.5664 68.9567 45.7116 70.6579 49.5948 72.5995L50.9364 69.9162C46.7571 67.8265 41.3555 66.0589 34.7718 64.5907L34.1188 67.5187ZM49.5948 72.5995C53.4637 74.5339 56.2109 76.8191 57.9504 79.4071L60.4402 77.7336C58.3359 74.6028 55.1301 72.013 50.9364 69.9162L49.5948 72.5995ZM57.9665 79.4305C59.7276 81.9464 60.6484 85.0767 60.6484 88.9062H63.6484C63.6484 84.5795 62.6005 80.8192 60.4242 77.7101L57.9665 79.4305ZM60.6484 88.9062C60.6484 95.2316 58.1511 100.251 53.0856 104.094L54.8988 106.484C60.7083 102.077 63.6484 96.1747 63.6484 88.9062H60.6484ZM53.0922 104.089C47.9783 107.924 41.2657 109.906 32.8281 109.906V112.906C41.7343 112.906 49.1311 110.81 54.8922 106.489L53.0922 104.089ZM32.8281 109.906C26.912 109.906 21.7416 108.86 17.2831 106.809L16.0294 109.535C20.9459 111.796 26.5567 112.906 32.8281 112.906V109.906ZM17.2831 106.809C12.8132 104.753 9.35264 101.918 6.84885 98.3157L4.38552 100.028C7.22549 104.114 11.1243 107.278 16.0294 109.535L17.2831 106.809ZM6.86063 98.3329C4.39525 94.6789 3.17969 90.7737 3.17969 86.5859H0.179688C0.179688 91.3982 1.58913 95.8836 4.37374 100.011L6.86063 98.3329ZM1.67969 88.0859H14.6875V85.0859H1.67969V88.0859ZM13.1897 86.6665C13.4456 91.4268 15.3658 95.3036 18.9557 98.1651L20.8256 95.8192C17.9467 93.5245 16.3982 90.4639 16.1853 86.5054L13.1897 86.6665ZM18.9744 98.1799C22.5857 100.966 27.2496 102.289 32.8281 102.289V99.2891C27.7192 99.2891 23.7581 98.0812 20.8068 95.8045L18.9744 98.1799ZM32.8281 102.289C37.9354 102.289 42.1948 101.269 45.4727 99.084L43.8086 96.5879C41.1802 98.3401 37.5646 99.2891 32.8281 99.2891V102.289ZM45.4772 99.081C48.8497 96.8151 50.6406 93.6968 50.6406 89.8203H47.6406C47.6406 92.6001 46.4315 94.8255 43.8041 96.5909L45.4772 99.081ZM126.062 110L124.721 110.671L125.135 111.5H126.062V110ZM124.234 101.984L125.723 101.803L125.341 98.6715L123.154 100.944L124.234 101.984ZM84.0859 105.078L83.0874 106.197L83.0931 106.203L83.099 106.208L84.0859 105.078ZM85.9141 70.4844L86.7958 71.6979L86.7974 71.6967L85.9141 70.4844ZM124.023 63.875V65.375H125.523V63.875H124.023ZM119.945 47.0703L118.885 48.131L118.894 48.1402L119.945 47.0703ZM91.5391 55.0156V56.5156H93.0391V55.0156H91.5391ZM78.4609 55.0156H76.9609V56.5156H78.4609V55.0156ZM82.4688 44.0469L81.2763 43.1369L81.2745 43.1393L82.4688 44.0469ZM93.4375 35.6094L92.8283 34.2386L92.8231 34.241L93.4375 35.6094ZM129.297 39.125L128.302 40.2473L128.308 40.2525L129.297 39.125ZM137.031 57.1953H138.531V57.177L138.531 57.1587L137.031 57.1953ZM139.703 108.875H141.203V108.565L141.08 108.28L139.703 108.875ZM139.703 110V111.5H141.203V110H139.703ZM124.023 88.6953L125.372 89.3511L125.523 89.0406V88.6953H124.023ZM124.023 73.0859H125.523V71.5859H124.023V73.0859ZM127.404 109.329C126.781 108.082 126.191 105.641 125.723 101.803L122.745 102.166C123.215 106.015 123.844 108.918 124.721 110.671L127.404 109.329ZM123.154 100.944C117.377 106.944 110.543 109.906 102.578 109.906V112.906C111.394 112.906 118.998 109.587 125.315 103.025L123.154 100.944ZM102.578 109.906C95.3759 109.906 89.5823 107.889 85.0729 103.949L83.099 106.208C88.2458 110.705 94.7803 112.906 102.578 112.906V109.906ZM85.0845 103.959C80.6284 99.9832 78.4141 95.0026 78.4141 88.9062H75.4141C75.4141 95.8411 77.981 101.642 83.0874 106.197L85.0845 103.959ZM78.4141 88.9062C78.4141 81.4262 81.2142 75.7533 86.7958 71.6979L85.0324 69.2709C78.6139 73.9342 75.4141 80.5425 75.4141 88.9062H78.4141ZM86.7974 71.6967C92.4941 67.5456 100.623 65.375 111.367 65.375V62.375C100.268 62.375 91.4278 64.6106 85.0307 69.2721L86.7974 71.6967ZM111.367 65.375H124.023V62.375H111.367V65.375ZM125.523 63.875V57.8984H122.523V63.875H125.523ZM125.523 57.8984C125.523 53.0326 124.057 49.0079 120.997 46.0005L118.894 48.1402C121.271 50.4765 122.523 53.6705 122.523 57.8984H125.523ZM121.006 46.0097C117.913 42.9171 113.463 41.4922 107.922 41.4922V44.4922C112.974 44.4922 116.54 45.786 118.885 48.131L121.006 46.0097ZM107.922 41.4922C103.019 41.4922 98.7979 42.7347 95.3529 45.3057L97.1471 47.71C99.9833 45.5934 103.543 44.4922 107.922 44.4922V41.4922ZM95.3529 45.3057C91.9091 47.8757 90.0391 51.1264 90.0391 55.0156H93.0391C93.0391 52.2486 94.3097 49.8275 97.1471 47.71L95.3529 45.3057ZM91.5391 53.5156H78.4609V56.5156H91.5391V53.5156ZM79.9609 55.0156C79.9609 51.5981 81.1559 48.2534 83.663 44.9545L81.2745 43.1393C78.4379 46.8716 76.9609 50.8394 76.9609 55.0156H79.9609ZM83.6612 44.9569C86.2105 41.6164 89.6574 38.9508 94.0519 36.9778L92.8231 34.241C88.0301 36.3929 84.1645 39.3523 81.2763 43.1369L83.6612 44.9569ZM94.0467 36.9801C98.479 35.0102 103.355 34.0156 108.695 34.0156V31.0156C102.973 31.0156 97.6773 32.0836 92.8283 34.2387L94.0467 36.9801ZM108.695 34.0156C117.214 34.0156 123.685 36.1534 128.302 40.2473L130.292 38.0027C124.971 33.2841 117.708 31.0156 108.695 31.0156V34.0156ZM128.308 40.2525C132.909 44.2897 135.353 49.8884 135.532 57.2319L138.531 57.1587C138.335 49.1272 135.622 42.6791 130.286 37.9975L128.308 40.2525ZM135.531 57.1953V92.2109H138.531V57.1953H135.531ZM135.531 92.2109C135.531 99.2984 136.431 105.082 138.326 109.47L141.08 108.28C139.412 104.418 138.531 99.0922 138.531 92.2109H135.531ZM138.203 108.875V110H141.203V108.875H138.203ZM139.703 108.5H126.062V111.5H139.703V108.5ZM104.477 101.586C108.827 101.586 112.952 100.457 116.828 98.2212L115.329 95.6226C111.892 97.6053 108.282 98.5859 104.477 98.5859V101.586ZM116.828 98.2212C120.71 95.9814 123.585 93.0286 125.372 89.3511L122.674 88.0395C121.181 91.1121 118.759 93.6436 115.329 95.6226L116.828 98.2212ZM125.523 88.6953V73.0859H122.523V88.6953H125.523ZM124.023 71.5859H113.828V74.5859H124.023V71.5859ZM113.828 71.5859C105.762 71.5859 99.4666 72.7575 95.1407 75.2894C90.6908 77.8939 88.4219 81.8881 88.4219 87.0781H91.4219C91.4219 82.94 93.1373 79.9381 96.6561 77.8785C100.299 75.7464 105.957 74.5859 113.828 74.5859V71.5859ZM88.4219 87.0781C88.4219 91.526 89.9246 95.1612 93.032 97.7865L94.968 95.4948C92.6379 93.5263 91.4219 90.7865 91.4219 87.0781H88.4219ZM93.032 97.7865C96.0727 100.355 99.93 101.586 104.477 101.586V98.5859C100.492 98.5859 97.3648 97.5196 94.968 95.4948L93.032 97.7865ZM197.711 81.6641L196.811 82.8641L196.823 82.873L196.835 82.8818L197.711 81.6641ZM183.859 76.6016L183.545 78.0683L183.547 78.0687L183.859 76.6016ZM168.18 71.5391L167.496 72.8741L167.502 72.8775L168.18 71.5391ZM159.602 64.5078L158.357 65.3448L158.362 65.3521L158.367 65.3594L159.602 64.5078ZM164.734 38.9844L163.787 37.8211L163.782 37.8253L164.734 38.9844ZM205.938 39.1953L204.977 40.3477L204.982 40.3518L205.938 39.1953ZM214.023 56.2812V57.7812H215.523V56.2812H214.023ZM200.945 56.2812H199.445V57.7812H200.945V56.2812ZM196.375 47.0703L195.397 48.208L195.406 48.2154L196.375 47.0703ZM187.023 66.0547L186.695 67.5182L186.697 67.5187L187.023 66.0547ZM211.773 78.5703L210.529 79.4071L210.536 79.4189L210.545 79.4305L211.773 78.5703ZM206.57 105.289L207.47 106.489L207.477 106.484L206.57 105.289ZM158.195 99.1719L156.952 100.011L156.958 100.019L156.964 100.028L158.195 99.1719ZM154.258 86.5859V85.0859H152.758V86.5859H154.258ZM167.266 86.5859L168.763 86.5054L168.687 85.0859H167.266V86.5859ZM172.469 96.9922L171.534 98.1651L171.543 98.1726L171.553 98.1799L172.469 96.9922ZM197.219 97.8359L198.051 99.084L198.055 99.081L197.219 97.8359ZM203.219 89.8203C203.219 85.8606 201.681 82.6719 198.587 80.4464L196.835 82.8818C199.085 84.5 200.219 86.7488 200.219 89.8203H203.219ZM198.611 80.4641C195.709 78.2873 190.815 76.5479 184.172 75.1344L183.547 78.0687C190.122 79.4677 194.463 81.1033 196.811 82.8641L198.611 80.4641ZM184.174 75.1349C177.677 73.7428 172.588 72.0889 168.857 70.2007L167.502 72.8775C171.552 74.9267 176.916 76.6479 183.545 78.0683L184.174 75.1349ZM168.864 70.204C165.175 68.3147 162.534 66.1175 160.836 63.6562L158.367 65.3594C160.419 68.3356 163.497 70.8259 167.496 72.8741L168.864 70.204ZM160.846 63.6708C159.208 61.234 158.359 58.301 158.359 54.8047H155.359C155.359 58.8084 156.339 62.3442 158.357 65.3448L160.846 63.6708ZM158.359 54.8047C158.359 49.0631 160.748 44.2002 165.686 40.1435L163.782 37.8253C158.221 42.3936 155.359 48.0775 155.359 54.8047H158.359ZM165.681 40.1476C170.66 36.0944 177.054 34.0156 184.984 34.0156V31.0156C176.508 31.0156 169.403 33.2493 163.787 37.8211L165.681 40.1476ZM184.984 34.0156C193.345 34.0156 199.963 36.1691 204.977 40.3476L206.898 38.043C201.225 33.3153 193.873 31.0156 184.984 31.0156V34.0156ZM204.982 40.3518C210.031 44.5225 212.523 49.7952 212.523 56.2812H215.523C215.523 48.8923 212.625 42.7743 206.893 38.0389L204.982 40.3518ZM214.023 54.7812H200.945V57.7812H214.023V54.7812ZM202.445 56.2812C202.445 52.2212 200.682 48.7498 197.344 45.9252L195.406 48.2154C198.162 50.5471 199.445 53.2163 199.445 56.2812H202.445ZM197.353 45.9327C194.038 43.0837 189.876 41.7031 184.984 41.7031V44.7031C189.281 44.7031 192.712 45.9006 195.397 48.2079L197.353 45.9327ZM184.984 41.7031C180.049 41.7031 175.98 42.7768 172.958 45.1095L174.792 47.4843C177.113 45.692 180.451 44.7031 184.984 44.7031V41.7031ZM172.958 45.1095C169.925 47.4513 168.367 50.5822 168.367 54.3828H171.367C171.367 51.5272 172.482 49.2675 174.792 47.4843L172.958 45.1095ZM168.367 54.3828C168.367 57.9951 169.837 60.8568 172.784 62.7469L174.404 60.2218C172.381 58.9245 171.367 57.0518 171.367 54.3828H168.367ZM172.784 62.7469C175.509 64.4952 180.215 66.0626 186.695 67.5182L187.352 64.5912C180.895 63.1406 176.647 61.6611 174.404 60.2218L172.784 62.7469ZM186.697 67.5187C193.145 68.9567 198.29 70.6579 202.173 72.5995L203.515 69.9162C199.335 67.8265 193.934 66.0589 187.35 64.5907L186.697 67.5187ZM202.173 72.5995C206.042 74.5339 208.789 76.8191 210.529 79.4071L213.018 77.7336C210.914 74.6028 207.708 72.013 203.515 69.9162L202.173 72.5995ZM210.545 79.4305C212.306 81.9464 213.227 85.0767 213.227 88.9062H216.227C216.227 84.5795 215.179 80.8192 213.002 77.7101L210.545 79.4305ZM213.227 88.9062C213.227 95.2316 210.729 100.251 205.664 104.094L207.477 106.484C213.286 102.077 216.227 96.1747 216.227 88.9062H213.227ZM205.67 104.089C200.556 107.924 193.844 109.906 185.406 109.906V112.906C194.312 112.906 201.709 110.81 207.47 106.489L205.67 104.089ZM185.406 109.906C179.49 109.906 174.32 108.86 169.861 106.809L168.608 109.535C173.524 111.796 179.135 112.906 185.406 112.906V109.906ZM169.861 106.809C165.391 104.753 161.931 101.918 159.427 98.3157L156.964 100.028C159.804 104.114 163.702 107.278 168.608 109.535L169.861 106.809ZM159.439 98.3329C156.973 94.6789 155.758 90.7737 155.758 86.5859H152.758C152.758 91.3982 154.167 95.8836 156.952 100.011L159.439 98.3329ZM154.258 88.0859H167.266V85.0859H154.258V88.0859ZM165.768 86.6665C166.024 91.4268 167.944 95.3036 171.534 98.1651L173.404 95.8192C170.525 93.5245 168.976 90.4639 168.763 86.5054L165.768 86.6665ZM171.553 98.1799C175.164 100.966 179.828 102.289 185.406 102.289V99.2891C180.297 99.2891 176.336 98.0812 173.385 95.8045L171.553 98.1799ZM185.406 102.289C190.514 102.289 194.773 101.269 198.051 99.084L196.387 96.5879C193.758 98.3401 190.143 99.2891 185.406 99.2891V102.289ZM198.055 99.081C201.428 96.8151 203.219 93.6968 203.219 89.8203H200.219C200.219 92.6001 199.01 94.8255 196.382 96.5909L198.055 99.081ZM244.68 43.1328H243.18V47.3494L245.843 44.0802L244.68 43.1328ZM291.508 59.7266L293.008 59.7266L293.008 59.7149L291.508 59.7266ZM291.508 110V111.5H293.008V110H291.508ZM278.5 110H277V111.5H278.5V110ZM278.5 59.6562H280L280 59.6434L278.5 59.6562ZM274.703 47.4922L273.604 48.5129L273.609 48.5181L273.614 48.5233L274.703 47.4922ZM244.68 55.7891L243.331 55.1321L243.18 55.4431V55.7891H244.68ZM244.68 110V111.5H246.18V110H244.68ZM231.672 110H230.172V111.5H231.672V110ZM231.672 2V0.5H230.172V2H231.672ZM244.68 2H246.18V0.5H244.68V2ZM245.843 44.0802C251.32 37.3564 258.39 34.0156 267.18 34.0156V31.0156C257.5 31.0156 249.571 34.753 243.517 42.1855L245.843 44.0802ZM267.18 34.0156C274.937 34.0156 280.516 36.1953 284.202 40.3181C287.918 44.4747 289.939 50.8585 290.008 59.7382L293.008 59.7149C292.936 50.454 290.832 43.2323 286.439 38.3186C282.015 33.3711 275.501 31.0156 267.18 31.0156V34.0156ZM290.008 59.7266V110H293.008V59.7266H290.008ZM291.508 108.5H278.5V111.5H291.508V108.5ZM280 110V59.6562H277V110H280ZM280 59.6434C279.951 53.9709 278.644 49.4743 275.793 46.4611L273.614 48.5233C275.731 50.7601 276.955 54.3729 277 59.6691L280 59.6434ZM275.802 46.4715C272.973 43.4244 268.671 42.0547 263.242 42.0547V45.0547C268.219 45.0547 271.558 46.3099 273.604 48.5129L275.802 46.4715ZM263.242 42.0547C258.74 42.0547 254.729 43.2609 251.268 45.7042L252.998 48.1551C255.911 46.0985 259.307 45.0547 263.242 45.0547V42.0547ZM251.268 45.7042C247.865 48.1063 245.218 51.2587 243.331 55.1321L246.028 56.446C247.704 53.007 250.026 50.2531 252.998 48.1551L251.268 45.7042ZM243.18 55.7891V110H246.18V55.7891H243.18ZM244.68 108.5H231.672V111.5H244.68V108.5ZM233.172 110V2H230.172V110H233.172ZM231.672 3.5H244.68V0.5H231.672V3.5ZM243.18 2V43.1328H246.18V2H243.18ZM325.117 110V111.5H326.617V110H325.117ZM312.109 110H310.609V111.5H312.109V110ZM312.109 33.9219V32.4219H310.609V33.9219H312.109ZM325.117 33.9219H326.617V32.4219H325.117V33.9219ZM312.953 8.39844L311.84 7.39301L311.831 7.40306L311.822 7.41327L312.953 8.39844ZM312.953 19.0156L311.838 20.0191L311.847 20.0292L311.857 20.0391L312.953 19.0156ZM325.117 108.5H312.109V111.5H325.117V108.5ZM313.609 110V33.9219H310.609V110H313.609ZM312.109 35.4219H325.117V32.4219H312.109V35.4219ZM323.617 33.9219V110H326.617V33.9219H323.617ZM312.555 13.7422C312.555 11.958 313.08 10.537 314.084 9.38361L311.822 7.41327C310.295 9.16611 309.555 11.3076 309.555 13.7422H312.555ZM314.066 9.40387C315.017 8.35172 316.48 7.71875 318.719 7.71875V4.71875C315.895 4.71875 313.515 5.5389 311.84 7.39301L314.066 9.40387ZM318.719 7.71875C320.958 7.71875 322.421 8.35172 323.371 9.40387L325.598 7.39301C323.923 5.5389 321.542 4.71875 318.719 4.71875V7.71875ZM323.371 9.40387C324.415 10.559 324.953 11.9731 324.953 13.7422H327.953C327.953 11.2926 327.179 9.14414 325.598 7.39301L323.371 9.40387ZM324.953 13.7422C324.953 15.5116 324.415 16.8915 323.388 17.9921L325.581 20.0391C327.179 18.3272 327.953 16.1916 327.953 13.7422H324.953ZM323.388 17.9921C322.441 19.0065 320.972 19.625 318.719 19.625V22.625C321.528 22.625 323.903 21.8372 325.581 20.0391L323.388 17.9921ZM318.719 19.625C316.465 19.625 314.996 19.0065 314.05 17.9921L311.857 20.0391C313.535 21.8372 315.91 22.625 318.719 22.625V19.625ZM314.068 18.0122C313.079 16.9137 312.555 15.5269 312.555 13.7422H309.555C309.555 16.1762 310.296 18.3051 311.838 20.0191L314.068 18.0122ZM358.234 33.9219L359.733 33.8594L359.673 32.4219H358.234V33.9219ZM358.586 42.3594L357.087 42.4218L357.247 46.2509L359.729 43.3308L358.586 42.3594ZM402.883 44.75L401.526 45.3894L402.635 47.743L404.116 45.6038L402.883 44.75ZM412.727 35.8906L412.002 34.5772L411.996 34.5808L412.727 35.8906ZM452.594 59.0234H454.094V59.0115L454.094 58.9996L452.594 59.0234ZM452.594 110V111.5H454.094V110H452.594ZM439.586 110H438.086V111.5H439.586V110ZM435.859 47.6328L434.752 48.6447L434.761 48.6542L435.859 47.6328ZM411.32 47.9141L412.322 49.0307L412.331 49.0225L411.32 47.9141ZM405.766 59.5156L404.274 59.3579L404.266 59.4365V59.5156H405.766ZM405.766 110V111.5H407.266V110H405.766ZM392.688 110H391.188V111.5H392.688V110ZM358.938 54.4531L357.561 53.858L357.438 54.1428V54.4531H358.938ZM358.938 110V111.5H360.438V110H358.938ZM345.93 110H344.43V111.5H345.93V110ZM345.93 33.9219V32.4219H344.43V33.9219H345.93ZM356.736 33.9843L357.087 42.4218L360.085 42.2969L359.733 33.8594L356.736 33.9843ZM359.729 43.3308C364.991 37.1395 372.078 34.0156 381.156 34.0156V31.0156C371.297 31.0156 363.337 34.4542 357.443 41.3879L359.729 43.3308ZM381.156 34.0156C386.289 34.0156 390.49 34.9994 393.832 36.8812C397.159 38.7545 399.725 41.5677 401.526 45.3894L404.24 44.1106C402.197 39.776 399.22 36.4721 395.304 34.2672C391.404 32.071 386.664 31.0156 381.156 31.0156V34.0156ZM404.116 45.6038C406.512 42.1432 409.619 39.3432 413.458 37.2004L411.996 34.5808C407.772 36.9381 404.316 40.0443 401.65 43.8962L404.116 45.6038ZM413.451 37.204C417.269 35.0975 421.815 34.0156 427.141 34.0156V31.0156C421.404 31.0156 416.34 32.1838 412.002 34.5773L413.451 37.204ZM427.141 34.0156C435.229 34.0156 441.069 36.1525 444.938 40.1815C448.821 44.2258 450.957 50.4238 451.094 59.0473L454.094 58.9996C453.95 49.9512 451.702 42.8953 447.101 38.1037C442.486 33.2967 435.74 31.0156 427.141 31.0156V34.0156ZM451.094 59.0234V110H454.094V59.0234H451.094ZM452.594 108.5H439.586V111.5H452.594V108.5ZM441.086 110V59.7969H438.086V110H441.086ZM441.086 59.7969C441.086 54.1625 439.802 49.6703 436.958 46.6114L434.761 48.6542C436.885 50.9391 438.086 54.5562 438.086 59.7969H441.086ZM436.967 46.621C434.067 43.4482 429.381 42.0547 423.344 42.0547V45.0547C429.025 45.0547 432.683 46.38 434.752 48.6447L436.967 46.621ZM423.344 42.0547C418.19 42.0547 413.807 43.6168 410.31 46.8056L412.331 49.0225C415.209 46.3988 418.841 45.0547 423.344 45.0547V42.0547ZM410.319 46.7975C406.815 49.9407 404.823 54.1708 404.274 59.3579L407.257 59.6734C407.74 55.1105 409.451 51.6062 412.322 49.0306L410.319 46.7975ZM404.266 59.5156V110H407.266V59.5156H404.266ZM405.766 108.5H392.688V111.5H405.766V108.5ZM394.188 110V60.1484H391.188V110H394.188ZM394.188 60.1484C394.188 54.3939 392.779 49.801 389.699 46.6539C386.613 43.5008 382.099 42.0547 376.445 42.0547V45.0547C381.62 45.0547 385.227 46.3742 387.555 48.7524C389.889 51.1365 391.188 54.8404 391.188 60.1484H394.188ZM376.445 42.0547C371.967 42.0547 368.084 43.0094 364.877 45.0059C361.662 47.0071 359.233 49.9887 357.561 53.858L360.314 55.0483C361.782 51.6519 363.842 49.1843 366.463 47.5527C369.091 45.9164 372.393 45.0547 376.445 45.0547V42.0547ZM357.438 54.4531V110H360.438V54.4531H357.438ZM358.938 108.5H345.93V111.5H358.938V108.5ZM347.43 110V33.9219H344.43V110H347.43ZM345.93 35.4219H358.234V32.4219H345.93V35.4219ZM486.414 110V111.5H487.914V110H486.414ZM473.406 110H471.906V111.5H473.406V110ZM473.406 33.9219V32.4219H471.906V33.9219H473.406ZM486.414 33.9219H487.914V32.4219H486.414V33.9219ZM474.25 8.39844L473.137 7.39301L473.128 7.40306L473.119 7.41327L474.25 8.39844ZM474.25 19.0156L473.135 20.0191L473.144 20.0292L473.153 20.0391L474.25 19.0156ZM486.414 108.5H473.406V111.5H486.414V108.5ZM474.906 110V33.9219H471.906V110H474.906ZM473.406 35.4219H486.414V32.4219H473.406V35.4219ZM484.914 33.9219V110H487.914V33.9219H484.914ZM473.852 13.7422C473.852 11.958 474.377 10.537 475.381 9.38361L473.119 7.41327C471.592 9.16611 470.852 11.3076 470.852 13.7422H473.852ZM475.363 9.40387C476.313 8.35172 477.777 7.71875 480.016 7.71875V4.71875C477.192 4.71875 474.812 5.5389 473.137 7.39301L475.363 9.40387ZM480.016 7.71875C482.254 7.71875 483.718 8.35172 484.668 9.40387L486.894 7.39301C485.22 5.5389 482.839 4.71875 480.016 4.71875V7.71875ZM484.668 9.40387C485.711 10.559 486.25 11.9731 486.25 13.7422H489.25C489.25 11.2926 488.476 9.14414 486.894 7.39301L484.668 9.40387ZM486.25 13.7422C486.25 15.5116 485.712 16.8915 484.685 17.9921L486.878 20.0391C488.476 18.3272 489.25 16.1916 489.25 13.7422H486.25ZM484.685 17.9921C483.738 19.0065 482.269 19.625 480.016 19.625V22.625C482.825 22.625 485.2 21.8372 486.878 20.0391L484.685 17.9921ZM480.016 19.625C477.762 19.625 476.293 19.0065 475.347 17.9921L473.153 20.0391C474.832 21.8372 477.206 22.625 480.016 22.625V19.625ZM475.365 18.0122C474.376 16.9137 473.852 15.5269 473.852 13.7422H470.852C470.852 16.1762 471.592 18.3051 473.135 20.0191L475.365 18.0122Z" fill="black"/>
</svg>
